B612Mono-BoldItalic.ufo
<glyph name="exclam" format="2">
  <advance width="1300"/>
  <unicode hex="0021"/>
  <outline>
    <contour>
      <point x="785" y="1500" type="line" name="at01"/>
      <point x="599" y="444" type="line" name="av02"/>
      <point x="293" y="409" type="line"/>
      <point x="485" y="1500" type="line"/>
    </contour>
    <contour>
      <point x="233" y="149" type="qcurve"/>
      <point x="239" y="183"/>
      <point x="274" y="242"/>
      <point x="327" y="287"/>
      <point x="391" y="313"/>
      <point x="425" y="313" type="qcurve" name="av01"/>
      <point x="459" y="313"/>
      <point x="513" y="287"/>
      <point x="550" y="242"/>
      <point x="565" y="183"/>
      <point x="559" y="149" type="qcurve"/>
      <point x="553" y="116"/>
      <point x="517" y="55"/>
      <point x="466" y="10"/>
      <point x="402" y="-17"/>
      <point x="368" y="-17" type="qcurve" name="ab01"/>
      <point x="335" y="-17"/>
      <point x="279" y="10"/>
      <point x="241" y="55"/>
      <point x="227" y="116"/>
    </contour>
  </outline>
</glyph>
<glyph name="quotedbl" format="2">
  <advance width="1300"/>
  <unicode hex="0022"/>
  <outline>
    <contour>
      <point x="893" y="1500" type="line" name="sv01"/>
      <point x="870" y="1367" type="line"/>
      <point x="867" y="1349"/>
      <point x="858" y="1300"/>
      <point x="846" y="1246"/>
      <point x="832" y="1191"/>
      <point x="825" y="1168" type="qcurve"/>
      <point x="775" y="1013" type="line" name="sv02"/>
      <point x="595" y="1013" type="line"/>
      <point x="599" y="1168" type="line"/>
      <point x="600" y="1191"/>
      <point x="605" y="1246"/>
      <point x="613" y="1300"/>
      <point x="621" y="1349"/>
      <point x="624" y="1367" type="qcurve"/>
      <point x="647" y="1500" type="line"/>
    </contour>
    <contour>
      <point x="593" y="1500" type="line"/>
      <point x="570" y="1367" type="line"/>
      <point x="567" y="1349"/>
      <point x="558" y="1300"/>
      <point x="546" y="1246"/>
      <point x="532" y="1191"/>
      <point x="525" y="1168" type="qcurve"/>
      <point x="475" y="1013" type="line"/>
      <point x="295" y="1013" type="line" name="av01"/>
      <point x="299" y="1168" type="line"/>
      <point x="300" y="1191"/>
      <point x="305" y="1246"/>
      <point x="313" y="1300"/>
      <point x="321" y="1349"/>
      <point x="324" y="1367" type="qcurve"/>
      <point x="347" y="1500" type="line" name="at01"/>
    </contour>
  </outline>
</glyph>
<glyph name="quotesingle" format="2">
  <advance width="1300"/>
  <unicode hex="0027"/>
  <outline>
    <contour>
      <point x="300" y="1500" type="line" name="at01"/>
      <point x="570" y="1500" type="line" name="sv01"/>
      <point x="546" y="1367" type="line"/>
      <point x="540" y="1331"/>
      <point x="514" y="1266"/>
      <point x="469" y="1197"/>
      <point x="401" y="1118"/>
      <point x="352" y="1068" type="qcurve" name="sv02"/>
      <point x="213" y="1068" type="line" name="av01"/>
      <point x="230" y="1148"/>
      <point x="265" y="1301"/>
      <point x="276" y="1367" type="qcurve"/>
    </contour>
  </outline>
</glyph>
<glyph name="parenleft" format="2">
  <advance width="1300"/>
  <unicode hex="0028"/>
  <outline>
    <contour>
      <point x="449" y="1158" type="line" name="hr00"/>
      <point x="465" y="1251"/>
      <point x="514" y="1412"/>
      <point x="605" y="1532"/>
      <point x="753" y="1600"/>
      <point x="867" y="1600" type="qcurve" name="av01"/>
      <point x="892" y="1600"/>
      <point x="947" y="1593"/>
      <point x="1001" y="1579"/>
      <point x="1051" y="1558"/>
      <point x="1069" y="1545" type="qcurve"/>
      <point x="959" y="1431" type="line"/>
      <point x="941" y="1431"/>
      <point x="890" y="1421"/>
      <point x="839" y="1380"/>
      <point x="794" y="1298"/>
      <point x="782" y="1227" type="qcurve"/>
      <point x="557" y="-46" type="line" name="ah01"/>
      <point x="544" y="-119"/>
      <point x="561" y="-200"/>
      <point x="597" y="-238"/>
      <point x="640" y="-245"/>
      <point x="655" y="-245" type="qcurve"/>
      <point x="732" y="-365" type="line"/>
      <point x="709" y="-378"/>
      <point x="653" y="-399"/>
      <point x="593" y="-413"/>
      <point x="535" y="-420"/>
      <point x="510" y="-420" type="qcurve" name="av02"/>
      <point x="396" y="-420"/>
      <point x="274" y="-347"/>
      <point x="226" y="-221"/>
      <point x="234" y="-55"/>
      <point x="251" y="38" type="qcurve"/>
    </contour>
  </outline>
</glyph>
<glyph name="plus" format="2">
  <advance width="1300"/>
  <unicode hex="002B"/>
  <outline>
    <contour>
      <point x="205" y="700" type="line" name="av01"/>
      <point x="565" y="700" type="line"/>
      <point x="638" y="1117" type="line" name="at01"/>
      <point x="858" y="1117" type="line" name="sv01"/>
      <point x="785" y="700" type="line"/>
      <point x="1145" y="700" type="line" name="sv02"/>
      <point x="1109" y="500" type="line" name="sv03"/>
      <point x="749" y="500" type="line"/>
      <point x="679" y="100" type="line" name="sv04"/>
      <point x="459" y="100" type="line" name="av02"/>
      <point x="529" y="500" type="line"/>
      <point x="169" y="500" type="line"/>
    </contour>
  </outline>
</glyph>
<glyph name="comma" format="2">
  <advance width="1300"/>
  <unicode hex="002C"/>
  <outline>
    <contour>
      <point x="366.245" y="156" type="qcurve" name="hr00"/>
      <point x="372.245" y="191"/>
      <point x="411.245" y="254"/>
      <point x="469.245" y="300"/>
      <point x="539.245" y="329"/>
      <point x="575.245" y="329" type="qcurve" name="av01"/>
      <point x="610.245" y="329"/>
      <point x="668.245" y="304"/>
      <point x="710.245" y="256"/>
      <point x="727.245" y="182"/>
      <point x="719.245" y="136" type="qcurve"/>
      <point x="707.245" y="72"/>
      <point x="670.245" y="-47"/>
      <point x="600.245" y="-169"/>
      <point x="486.245" y="-296"/>
      <point x="399.245" y="-365" type="qcurve"/>
      <point x="342.245" y="-337" type="line"/>
      <point x="379.245" y="-284"/>
      <point x="410.245" y="-228" type="qcurve"/>
      <point x="437.245" y="-181"/>
      <point x="486.245" y="-70"/>
      <point x="496.245" y="-17" type="qcurve"/>
      <point x="466.245" y="-16"/>
      <point x="412.245" y="8"/>
      <point x="374.245" y="50"/>
      <point x="359.245" y="115"/>
    </contour>
  </outline>
</glyph>
<glyph name="hyphen" format="2">
  <advance width="1300"/>
  <unicode hex="002D"/>
  <outline>
    <contour>
      <point x="339" y="624" type="line" name="hr00"/>
      <point x="966" y="624" type="line"/>
      <point x="927" y="400" type="line" name="sv01"/>
      <point x="300" y="400" type="line" name="av01"/>
    </contour>
  </outline>
</glyph>
<glyph name="period" format="2">
  <advance width="1300"/>
  <unicode hex="002E"/>
  <outline>
    <contour>
      <point x="351.786" y="183" type="qcurve" name="hr00"/>
      <point x="358.786" y="224"/>
      <point x="402.786" y="296"/>
      <point x="465.786" y="350"/>
      <point x="542.786" y="381"/>
      <point x="583.786" y="381" type="qcurve"/>
      <point x="624.786" y="381"/>
      <point x="690.786" y="350"/>
      <point x="735.786" y="296"/>
      <point x="753.786" y="224"/>
      <point x="746.786" y="183" type="qcurve"/>
      <point x="738.786" y="142"/>
      <point x="695.786" y="69"/>
      <point x="632.786" y="15"/>
      <point x="555.786" y="-17"/>
      <point x="514.786" y="-17" type="qcurve"/>
      <point x="473.786" y="-17"/>
      <point x="406.786" y="15"/>
      <point x="362.786" y="69"/>
      <point x="343.786" y="142"/>
    </contour>
  </outline>
</glyph>
<glyph name="slash" format="2">
  <advance width="1300"/>
  <unicode hex="002F"/>
  <outline>
    <contour>
      <point x="331" y="-100" type="line" name="sv01"/>
      <point x="0" y="-100" type="line" name="av01"/>
      <point x="977" y="1600" type="line" name="av02"/>
      <point x="1300" y="1600" type="line" name="sv02"/>
    </contour>
  </outline>
</glyph>
<glyph name="zero" format="2">
  <advance width="1300"/>
  <unicode hex="0030"/>
  <outline>
    <contour>
      <point x="512" y="-16" type="qcurve" name="ab01"/>
      <point x="419" y="-16"/>
      <point x="275" y="49"/>
      <point x="170" y="161"/>
      <point x="104" y="311"/>
      <point x="71" y="481"/>
      <point x="72" y="663"/>
      <point x="88" y="750" type="qcurve" name="ah01"/>
      <point x="104" y="840"/>
      <point x="162" y="1023"/>
      <point x="249" y="1194"/>
      <point x="364" y="1342"/>
      <point x="508" y="1453"/>
      <point x="681" y="1516"/>
      <point x="783" y="1516" type="qcurve" name="at01"/>
      <point x="876" y="1516"/>
      <point x="1020" y="1451"/>
      <point x="1125" y="1339"/>
      <point x="1192" y="1189"/>
      <point x="1224" y="1019"/>
      <point x="1223" y="837"/>
      <point x="1208" y="750" type="qcurve" name="ah04"/>
      <point x="1192" y="660"/>
      <point x="1133" y="477"/>
      <point x="1046" y="306"/>
      <point x="931" y="158"/>
      <point x="787" y="47"/>
      <point x="613" y="-16"/>
    </contour>
    <contour>
      <point x="422" y="791" type="qcurve" name="ah02"/>
      <point x="413" y="740"/>
      <point x="400" y="616"/>
      <point x="399" y="491"/>
      <point x="414" y="373"/>
      <point x="451" y="281"/>
      <point x="513" y="226"/>
      <point x="561" y="226" type="qcurve"/>
      <point x="603" y="226"/>
      <point x="677" y="267"/>
      <point x="739" y="338"/>
      <point x="791" y="433"/>
      <point x="832" y="541"/>
      <point x="861" y="654"/>
      <point x="871" y="709" type="qcurve" name="ah03"/>
      <point x="880" y="760"/>
      <point x="893" y="884"/>
      <point x="894" y="1009"/>
      <point x="879" y="1127"/>
      <point x="842" y="1218"/>
      <point x="779" y="1273"/>
      <point x="731" y="1273" type="qcurve"/>
      <point x="689" y="1273"/>
      <point x="615" y="1232"/>
      <point x="553" y="1161"/>
      <point x="502" y="1066"/>
      <point x="461" y="959"/>
      <point x="431" y="845"/>
    </contour>
  </outline>
</glyph>
<glyph name="one" format="2">
  <advance width="1300"/>
  <unicode hex="0031"/>
  <outline>
    <contour>
      <point x="616" y="880" type="line" name="hr00"/>
      <point x="754" y="1243" type="line"/>
      <point x="479" y="972" type="line"/>
      <point x="382" y="898" type="line"/>
      <point x="259" y="1083" type="line"/>
      <point x="817" y="1520" type="line"/>
      <point x="1056" y="1500" type="line"/>
      <point x="827" y="200" type="line"/>
      <point x="1070" y="200" type="line"/>
      <point x="1034" y="0" type="line"/>
      <point x="217" y="0" type="line"/>
      <point x="253" y="200" type="line"/>
      <point x="496" y="200" type="line"/>
    </contour>
  </outline>
</glyph>
<glyph name="four" format="2">
  <advance width="1300"/>
  <unicode hex="0034"/>
  <outline>
    <contour>
      <point x="1155" y="300" type="line" name="hr00"/>
      <point x="977" y="300" type="line"/>
      <point x="924" y="0" type="line"/>
      <point x="603" y="0" type="line"/>
      <point x="656" y="300" type="line"/>
      <point x="96" y="300" type="line"/>
      <point x="132" y="500" type="line"/>
      <point x="805" y="1520" type="line"/>
      <point x="1082" y="1500" type="line"/>
      <point x="621" y="763" type="line"/>
      <point x="401" y="500" type="line"/>
      <point x="692" y="500" type="line"/>
      <point x="741" y="780" type="line"/>
      <point x="1066" y="800" type="line"/>
      <point x="1013" y="500" type="line"/>
      <point x="1212" y="500" type="line"/>
    </contour>
  </outline>
</glyph>
<glyph name="five" format="2">
  <advance width="1300"/>
  <unicode hex="0035"/>
  <outline>
    <contour>
      <point x="619" y="1046" type="line" name="hr00"/>
      <point x="644" y="1052"/>
      <point x="702" y="1059"/>
      <point x="737" y="1059" type="qcurve"/>
      <point x="853" y="1059"/>
      <point x="1024" y="991"/>
      <point x="1131" y="873"/>
      <point x="1170" y="716"/>
      <point x="1154" y="626" type="qcurve"/>
      <point x="1136" y="523"/>
      <point x="1023" y="351"/>
      <point x="858" y="212"/>
      <point x="651" y="107"/>
      <point x="426" y="36"/>
      <point x="193" y="0"/>
      <point x="85" y="0" type="qcurve"/>
      <point x="125" y="226" type="line"/>
      <point x="197" y="228"/>
      <point x="351" y="256"/>
      <point x="499" y="304"/>
      <point x="635" y="372"/>
      <point x="743" y="455"/>
      <point x="813" y="552"/>
      <point x="823" y="606" type="qcurve"/>
      <point x="830" y="647"/>
      <point x="816" y="725"/>
      <point x="776" y="785"/>
      <point x="712" y="822"/>
      <point x="669" y="822" type="qcurve"/>
      <point x="631" y="822"/>
      <point x="563" y="810"/>
      <point x="506" y="791"/>
      <point x="460" y="769"/>
      <point x="444" y="759" type="qcurve"/>
      <point x="219" y="759" type="line"/>
      <point x="350" y="1500" type="line"/>
      <point x="1216" y="1500" type="line"/>
      <point x="1180" y="1300" type="line"/>
      <point x="663" y="1300" type="line"/>
    </contour>
  </outline>
</glyph>
<glyph name="colon" format="2">
  <advance width="1300"/>
  <unicode hex="003A"/>
  <outline>
    <contour>
      <point x="351.848" y="183" type="qcurve" name="hr00"/>
      <point x="358.848" y="224"/>
      <point x="402.848" y="296"/>
      <point x="466.848" y="350"/>
      <point x="542.848" y="381"/>
      <point x="583.848" y="381" type="qcurve" name="av03"/>
      <point x="624.848" y="381"/>
      <point x="691.848" y="350"/>
      <point x="735.848" y="296"/>
      <point x="753.848" y="224"/>
      <point x="746.848" y="183" type="qcurve"/>
      <point x="739.848" y="142"/>
      <point x="695.848" y="69"/>
      <point x="632.848" y="15"/>
      <point x="556.848" y="-17"/>
      <point x="515.848" y="-17" type="qcurve" name="ab01"/>
      <point x="474.848" y="-17"/>
      <point x="406.848" y="15"/>
      <point x="362.848" y="69"/>
      <point x="344.848" y="142"/>
    </contour>
    <contour>
      <point x="442.848" y="700" type="qcurve"/>
      <point x="449.848" y="741"/>
      <point x="493.848" y="813"/>
      <point x="557.848" y="867"/>
      <point x="633.848" y="898"/>
      <point x="674.848" y="898" type="qcurve" name="av01"/>
      <point x="715.848" y="898"/>
      <point x="782.848" y="867"/>
      <point x="826.848" y="813"/>
      <point x="844.848" y="741"/>
      <point x="837.848" y="700" type="qcurve"/>
      <point x="830.848" y="659"/>
      <point x="786.848" y="586"/>
      <point x="724.848" y="532"/>
      <point x="647.848" y="500"/>
      <point x="606.848" y="500" type="qcurve" name="av02"/>
      <point x="565.848" y="500"/>
      <point x="498.848" y="532"/>
      <point x="453.848" y="586"/>
      <point x="435.848" y="659"/>
    </contour>
  </outline>
</glyph>
<glyph name="semicolon" format="2">
  <advance width="1300"/>
  <unicode hex="003B"/>
  <outline>
    <contour>
      <point x="365.929" y="156" type="qcurve" name="hr00"/>
      <point x="371.929" y="191"/>
      <point x="410.929" y="254"/>
      <point x="467.929" y="300"/>
      <point x="538.929" y="329"/>
      <point x="574.929" y="329" type="qcurve" name="av03"/>
      <point x="609.929" y="329"/>
      <point x="667.929" y="304"/>
      <point x="709.929" y="256"/>
      <point x="726.929" y="182"/>
      <point x="717.929" y="136" type="qcurve"/>
      <point x="706.929" y="72"/>
      <point x="669.929" y="-47"/>
      <point x="599.929" y="-169"/>
      <point x="485.929" y="-296"/>
      <point x="398.929" y="-365" type="qcurve"/>
      <point x="341.929" y="-337" type="line"/>
      <point x="377.929" y="-284"/>
      <point x="409.929" y="-228" type="qcurve"/>
      <point x="436.929" y="-181"/>
      <point x="485.929" y="-70"/>
      <point x="495.929" y="-17" type="qcurve" name="ab01"/>
      <point x="465.929" y="-16"/>
      <point x="411.929" y="8"/>
      <point x="373.929" y="50"/>
      <point x="358.929" y="115"/>
    </contour>
    <contour>
      <point x="442.929" y="700" type="qcurve"/>
      <point x="449.929" y="741"/>
      <point x="493.929" y="813"/>
      <point x="556.929" y="867"/>
      <point x="633.929" y="898"/>
      <point x="674.929" y="898" type="qcurve" name="av01"/>
      <point x="715.929" y="898"/>
      <point x="781.929" y="867"/>
      <point x="826.929" y="813"/>
      <point x="844.929" y="741"/>
      <point x="837.929" y="700" type="qcurve"/>
      <point x="830.929" y="659"/>
      <point x="786.929" y="586"/>
      <point x="723.929" y="532"/>
      <point x="647.929" y="500"/>
      <point x="606.929" y="500" type="qcurve" name="av02"/>
      <point x="565.929" y="500"/>
      <point x="497.929" y="532"/>
      <point x="453.929" y="586"/>
      <point x="435.929" y="659"/>
    </contour>
  </outline>
</glyph>
<glyph name="equal" format="2">
  <advance width="1300"/>
  <unicode hex="003D"/>
  <outline>
    <contour>
      <point x="304" y="800" type="line" name="av01"/>
      <point x="1104" y="800" type="line" name="sv01"/>
      <point x="1065" y="581" type="line"/>
      <point x="265" y="581" type="line"/>
    </contour>
    <contour>
      <point x="234" y="400" type="line" name="av02"/>
      <point x="1034" y="400" type="line" name="sv02"/>
      <point x="995" y="181" type="line"/>
      <point x="195" y="181" type="line"/>
    </contour>
  </outline>
</glyph>
<glyph name="greater" format="2">
  <advance width="1300"/>
  <unicode hex="003E"/>
  <outline>
    <contour>
      <point x="1217" y="770" type="line"/>
      <point x="1177" y="545" type="line"/>
      <point x="80" y="34" type="line" name="av02"/>
      <point x="127" y="302" type="line" name="sv01"/>
      <point x="856" y="654" type="line" name="iv01"/>
      <point x="252" y="1009" type="line" name="sv02"/>
      <point x="299" y="1278" type="line" name="av01"/>
    </contour>
  </outline>
</glyph>
<glyph name="A" format="2">
  <advance width="1300"/>
  <unicode hex="0041"/>
  <outline>
    <contour>
      <point x="35" y="0" type="line" name="ab01"/>
      <point x="616" y="1284" type="line"/>
      <point x="680" y="1500" type="line"/>
      <point x="1072" y="1520" type="line" name="at01"/>
      <point x="1234" y="0" type="line" name="sv01"/>
      <point x="900" y="0" type="line"/>
      <point x="872" y="427" type="line" name="sv02"/>
      <point x="530" y="427" type="line" name="av01"/>
      <point x="353" y="0" type="line"/>
    </contour>
    <contour>
      <point x="862" y="1331" type="line" name="mv01"/>
      <point x="763" y="990" type="line" name="mh01"/>
      <point x="627" y="646" type="line"/>
      <point x="851" y="646" type="line"/>
      <point x="840" y="990" type="line" name="mh02"/>
    </contour>
  </outline>
</glyph>
<glyph name="C" format="2">
  <advance width="1300"/>
  <unicode hex="0043"/>
  <outline>
    <contour>
      <point x="1058" y="133" type="line" name="hr00"/>
      <point x="943" y="52"/>
      <point x="705" y="-17"/>
      <point x="575" y="-17" type="qcurve" name="ab01"/>
      <point x="472" y="-17"/>
      <point x="303" y="40"/>
      <point x="174" y="143"/>
      <point x="84" y="287"/>
      <point x="37" y="461"/>
      <point x="31" y="662"/>
      <point x="50" y="769" type="qcurve"/>
      <point x="68" y="870"/>
      <point x="124" y="1059"/>
      <point x="210" y="1225"/>
      <point x="331" y="1363"/>
      <point x="497" y="1462"/>
      <point x="713" y="1517"/>
      <point x="850" y="1517" type="qcurve" name="at01"/>
      <point x="914" y="1517"/>
      <point x="1035" y="1494"/>
      <point x="1143" y="1450"/>
      <point x="1235" y="1386"/>
      <point x="1271" y="1344" type="qcurve"/>
      <point x="1091" y="1160" type="line"/>
      <point x="1062" y="1182"/>
      <point x="996" y="1222"/>
      <point x="927" y="1252"/>
      <point x="856" y="1270"/>
      <point x="822" y="1270" type="qcurve"/>
      <point x="727" y="1270"/>
      <point x="585" y="1192"/>
      <point x="484" y="1057"/>
      <point x="418" y="875"/>
      <point x="400" y="772" type="qcurve"/>
      <point x="389" y="711"/>
      <point x="384" y="584"/>
      <point x="398" y="464"/>
      <point x="434" y="358"/>
      <point x="495" y="279"/>
      <point x="584" y="233"/>
      <point x="643" y="233" type="qcurve"/>
      <point x="677" y="233"/>
      <point x="745" y="244"/>
      <point x="823" y="269"/>
      <point x="916" y="310"/>
      <point x="975" y="340" type="qcurve"/>
    </contour>
  </outline>
  <guideline angle="0" color="1,0,0,0.392157" x="0" y="233"/>
</glyph>
<glyph name="D" format="2">
  <advance width="1300"/>
  <unicode hex="0044"/>
  <outline>
    <contour>
      <point x="223" y="1500" type="line" name="hr00"/>
      <point x="273" y="1505"/>
      <point x="387" y="1511"/>
      <point x="497" y="1515"/>
      <point x="595" y="1517"/>
      <point x="628" y="1517" type="qcurve" name="at01"/>
      <point x="721" y="1517"/>
      <point x="901" y="1482"/>
      <point x="1059" y="1407"/>
      <point x="1187" y="1293"/>
      <point x="1268" y="1135"/>
      <point x="1294" y="932"/>
      <point x="1272" y="807" type="qcurve"/>
      <point x="1234" y="589"/>
      <point x="1091" y="282"/>
      <point x="868" y="89"/>
      <point x="558" y="0"/>
      <point x="353" y="0" type="qcurve" name="sv01"/>
      <point x="2" y="0" type="line" name="ab01"/>
      <point x="223" y="1262" type="line"/>
    </contour>
    <contour>
      <point x="549" y="1121" type="line"/>
      <point x="396" y="250" type="line"/>
      <point x="501" y="250"/>
      <point x="656" y="301"/>
      <point x="769" y="386"/>
      <point x="843" y="496"/>
      <point x="891" y="613"/>
      <point x="917" y="729"/>
      <point x="926" y="778" type="qcurve"/>
      <point x="946" y="890"/>
      <point x="943" y="1076"/>
      <point x="871" y="1210"/>
      <point x="714" y="1283"/>
      <point x="579" y="1283" type="qcurve"/>
      <point x="576" y="1283"/>
      <point x="569" y="1282"/>
      <point x="565" y="1282" type="qcurve"/>
      <point x="557" y="1282" type="line"/>
    </contour>
  </outline>
</glyph>
<glyph name="E" format="2">
  <advance width="1300"/>
  <unicode hex="0045"/>
  <outline>
    <contour>
      <point x="1066" y="228" type="line" name="hr00"/>
      <point x="999" y="0" type="line" name="sv01"/>
      <point x="39" y="0" type="line" name="ab01"/>
      <point x="97" y="231" type="line"/>
      <point x="279" y="1263" type="line"/>
      <point x="279" y="1500" type="line" name="at01"/>
      <point x="1254" y="1500" type="line" name="sv02"/>
      <point x="1214" y="1272" type="line"/>
      <point x="617" y="1272" type="line"/>
      <point x="607" y="1134" type="line"/>
      <point x="569" y="916" type="line" name="av01"/>
      <point x="1085" y="916" type="line" name="sv03"/>
      <point x="1047" y="703" type="line"/>
      <point x="531" y="703" type="line"/>
      <point x="471" y="360" type="line"/>
      <point x="439" y="228" type="line" name="mv01"/>
    </contour>
  </outline>
</glyph>
<glyph name="F" format="2">
  <advance width="1300"/>
  <unicode hex="0046"/>
  <outline>
    <contour>
      <point x="383" y="0" type="line" name="sv01"/>
      <point x="32" y="0" type="line" name="ab01"/>
      <point x="255" y="1263" type="line"/>
      <point x="255" y="1500" type="line" name="at01"/>
      <point x="1264" y="1500" type="line" name="sv02"/>
      <point x="1197" y="1272" type="line" name="mv01"/>
      <point x="593" y="1272" type="line"/>
      <point x="583" y="1134" type="line"/>
      <point x="545" y="916" type="line" name="av01"/>
      <point x="1058" y="916" type="line" name="sv03"/>
      <point x="1020" y="703" type="line"/>
      <point x="507" y="703" type="line"/>
    </contour>
  </outline>
</glyph>
<glyph name="H" format="2">
  <advance width="1300"/>
  <unicode hex="0048"/>
  <outline>
    <contour>
      <point x="672" y="0" type="line" name="hr00"/>
      <point x="794" y="688" type="line" name="sv01"/>
      <point x="478" y="688" type="line" name="av01"/>
      <point x="356" y="0" type="line"/>
      <point x="10" y="0" type="line" name="ab01"/>
      <point x="232" y="1263" type="line"/>
      <point x="232" y="1500" type="line" name="at01"/>
      <point x="625" y="1520" type="line" name="at02"/>
      <point x="518" y="916" type="line"/>
      <point x="834" y="916" type="line"/>
      <point x="937" y="1500" type="line" name="sv02"/>
      <point x="1287" y="1520" type="line" name="at03"/>
      <point x="1018" y="0" type="line" name="sv03"/>
    </contour>
  </outline>
</glyph>
<glyph name="I" format="2">
  <advance width="1300"/>
  <unicode hex="0049"/>
  <outline>
    <contour>
      <point x="347" y="1500" type="line" name="at01"/>
      <point x="1225" y="1500" type="line" name="sv01"/>
      <point x="1185" y="1272" type="line"/>
      <point x="912" y="1272" type="line"/>
      <point x="727" y="228" type="line"/>
      <point x="1028" y="228" type="line"/>
      <point x="953" y="0" type="line" name="sv02"/>
      <point x="75" y="0" type="line" name="ab01"/>
      <point x="115" y="228" type="line"/>
      <point x="393" y="228" type="line"/>
      <point x="578" y="1272" type="line"/>
      <point x="272" y="1272" type="line"/>
    </contour>
  </outline>
</glyph>
<glyph name="J" format="2">
  <advance width="1300"/>
  <unicode hex="004A"/>
  <outline>
    <contour>
      <point x="471" y="1500" type="line" name="at01"/>
      <point x="1243" y="1500" type="line" name="sv01"/>
      <point x="1057" y="446" type="line"/>
      <point x="1041" y="352"/>
      <point x="954" y="191"/>
      <point x="884" y="121" type="qcurve"/>
      <point x="851" y="88"/>
      <point x="764" y="37"/>
      <point x="661" y="2"/>
      <point x="547" y="-17"/>
      <point x="489" y="-17" type="qcurve" name="ab01"/>
      <point x="392" y="-17"/>
      <point x="251" y="18"/>
      <point x="149" y="78"/>
      <point x="78" y="156"/>
      <point x="50" y="200" type="qcurve"/>
      <point x="239" y="400" type="line"/>
      <point x="251" y="382"/>
      <point x="290" y="329"/>
      <point x="351" y="280"/>
      <point x="441" y="244"/>
      <point x="504" y="244" type="qcurve"/>
      <point x="534" y="244"/>
      <point x="597" y="263"/>
      <point x="653" y="309"/>
      <point x="696" y="386"/>
      <point x="706" y="444" type="qcurve"/>
      <point x="827" y="1132" type="line"/>
      <point x="871" y="1266" type="line"/>
      <point x="450" y="1266" type="line"/>
    </contour>
  </outline>
</glyph>
<glyph name="K" format="2">
  <advance width="1300"/>
  <unicode hex="004B"/>
  <outline>
    <contour>
      <point x="8" y="0" type="line" name="ab01"/>
      <point x="230" y="1263" type="line"/>
      <point x="230" y="1500" type="line" name="at01"/>
      <point x="627" y="1520" type="line" name="at02"/>
      <point x="541" y="1035" type="line"/>
      <point x="924" y="1500" type="line" name="sv01"/>
      <point x="1292" y="1500" type="line"/>
      <point x="777" y="900" type="line"/>
      <point x="527" y="800" type="line"/>
      <point x="735" y="716" type="line"/>
      <point x="1138" y="0" type="line" name="sv02"/>
      <point x="758" y="0" type="line"/>
      <point x="454" y="540" type="line"/>
      <point x="358" y="0" type="line"/>
    </contour>
  </outline>
</glyph>
<glyph name="N" format="2">
  <advance width="1300"/>
  <unicode hex="004E"/>
  <outline>
    <contour>
      <point x="739" y="0" type="line" name="hr00"/>
      <point x="443" y="950" type="line"/>
      <point x="433" y="950" type="line"/>
      <point x="442" y="649" type="line"/>
      <point x="327" y="0" type="line"/>
      <point x="5" y="0" type="line" name="ab01"/>
      <point x="227" y="1263" type="line"/>
      <point x="227" y="1500" type="line" name="at01"/>
      <point x="566" y="1520" type="line" name="at02"/>
      <point x="861" y="600" type="line"/>
      <point x="871" y="600" type="line"/>
      <point x="857" y="852" type="line"/>
      <point x="971" y="1500" type="line" name="sv01"/>
      <point x="1297" y="1520" type="line" name="at03"/>
      <point x="1028" y="0" type="line" name="sv02"/>
    </contour>
  </outline>
</glyph>
<glyph name="P" format="2">
  <advance width="1300"/>
  <unicode hex="0050"/>
  <outline>
    <contour>
      <point x="360" y="0" type="line" name="sv01"/>
      <point x="28" y="0" type="line" name="ab01"/>
      <point x="250" y="1262" type="line"/>
      <point x="250" y="1484" type="line"/>
      <point x="296" y="1491"/>
      <point x="405" y="1504"/>
      <point x="514" y="1512"/>
      <point x="615" y="1517"/>
      <point x="653" y="1517" type="qcurve" name="at01"/>
      <point x="810" y="1517"/>
      <point x="1050" y="1449"/>
      <point x="1207" y="1328"/>
      <point x="1277" y="1160"/>
      <point x="1263" y="1061" type="qcurve"/>
      <point x="1245" y="929"/>
      <point x="1126" y="750"/>
      <point x="925" y="639"/>
      <point x="644" y="587"/>
      <point x="463" y="583" type="qcurve"/>
    </contour>
    <contour>
      <point x="557" y="1121" type="line"/>
      <point x="503" y="813" type="line"/>
      <point x="608" y="817"/>
      <point x="761" y="848"/>
      <point x="866" y="909"/>
      <point x="927" y="1007"/>
      <point x="940" y="1078" type="qcurve"/>
      <point x="949" y="1132"/>
      <point x="904" y="1213"/>
      <point x="820" y="1266"/>
      <point x="711" y="1292"/>
      <point x="657" y="1292" type="qcurve"/>
      <point x="643" y="1292"/>
      <point x="623" y="1292"/>
      <point x="605" y="1291"/>
      <point x="584" y="1290"/>
      <point x="571" y="1289" type="qcurve"/>
    </contour>
  </outline>
  <guideline angle="0" color="1,0,0,1" x="0" y="850"/>
</glyph>
<glyph name="R" format="2">
  <advance width="1300"/>
  <unicode hex="0052"/>
  <outline>
    <contour>
      <point x="491" y="600" type="line" name="hr00"/>
      <point x="385" y="0" type="line"/>
      <point x="61" y="0" type="line" name="ab01"/>
      <point x="282" y="1262" type="line"/>
      <point x="282" y="1488" type="line"/>
      <point x="327" y="1493"/>
      <point x="426" y="1504"/>
      <point x="526" y="1512"/>
      <point x="624" y="1517"/>
      <point x="668" y="1517" type="qcurve" name="at01"/>
      <point x="795" y="1517"/>
      <point x="1011" y="1454"/>
      <point x="1161" y="1335"/>
      <point x="1231" y="1166"/>
      <point x="1212" y="1061" type="qcurve"/>
      <point x="1197" y="972"/>
      <point x="1117" y="831"/>
      <point x="997" y="723"/>
      <point x="840" y="647"/>
      <point x="746" y="624" type="qcurve"/>
      <point x="834" y="600" type="line"/>
      <point x="1136" y="0" type="line" name="sv01"/>
      <point x="771" y="0" type="line"/>
    </contour>
    <contour>
      <point x="582" y="1121" type="line"/>
      <point x="526" y="800" type="line"/>
      <point x="562" y="800" type="line"/>
      <point x="630" y="800"/>
      <point x="743" y="843"/>
      <point x="828" y="916"/>
      <point x="882" y="1013"/>
      <point x="891" y="1066" type="qcurve"/>
      <point x="903" y="1136"/>
      <point x="867" y="1226"/>
      <point x="794" y="1277"/>
      <point x="699" y="1296"/>
      <point x="653" y="1296" type="qcurve"/>
      <point x="637" y="1296"/>
      <point x="609" y="1295"/>
      <point x="597" y="1294" type="qcurve"/>
    </contour>
  </outline>
</glyph>
<glyph name="T" format="2">
  <advance width="1300"/>
  <unicode hex="0054"/>
  <outline>
    <contour>
      <point x="246" y="0" type="line" name="hr00"/>
      <point x="471" y="1272" type="line"/>
      <point x="68" y="1272" type="line"/>
      <point x="108" y="1500" type="line" name="at01"/>
      <point x="1242" y="1500" type="line" name="sv01"/>
      <point x="1202" y="1272" type="line"/>
      <point x="804" y="1272" type="line"/>
      <point x="579" y="0" type="line" name="ab01"/>
    </contour>
  </outline>
</glyph>
<glyph name="U" format="2">
  <advance width="1300"/>
  <unicode hex="0055"/>
  <outline>
    <contour>
      <point x="1261" y="1500" type="line" name="sv01"/>
      <point x="1091" y="534" type="line"/>
      <point x="1067" y="395"/>
      <point x="956" y="188"/>
      <point x="792" y="51"/>
      <point x="579" y="-17"/>
      <point x="453" y="-17" type="qcurve" name="ab01"/>
      <point x="317" y="-17"/>
      <point x="144" y="69"/>
      <point x="55" y="227"/>
      <point x="42" y="448"/>
      <point x="66" y="582" type="qcurve"/>
      <point x="186" y="1263" type="line"/>
      <point x="186" y="1500" type="line" name="at01"/>
      <point x="563" y="1520" type="line" name="at02"/>
      <point x="394" y="564" type="line"/>
      <point x="380" y="483"/>
      <point x="370" y="355"/>
      <point x="393" y="267"/>
      <point x="457" y="221"/>
      <point x="516" y="221" type="qcurve"/>
      <point x="607" y="221"/>
      <point x="730" y="368"/>
      <point x="756" y="516" type="qcurve"/>
      <point x="929" y="1500" type="line"/>
    </contour>
  </outline>
</glyph>
<glyph name="W" format="2">
  <advance width="1300"/>
  <unicode hex="0057"/>
  <outline>
    <contour>
      <point x="319" y="1520" type="line" name="at02"/>
      <point x="333" y="959" type="line"/>
      <point x="231" y="400" type="line"/>
      <point x="241" y="400" type="line"/>
      <point x="348" y="701" type="line"/>
      <point x="452" y="1000" type="line"/>
      <point x="678" y="1000" type="line"/>
      <point x="682" y="701" type="line"/>
      <point x="681" y="400" type="line"/>
      <point x="691" y="400" type="line"/>
      <point x="787" y="957" type="line"/>
      <point x="985" y="1500" type="line"/>
      <point x="1276" y="1500" type="line" name="sv01"/>
      <point x="743" y="0" type="line" name="sv02"/>
      <point x="490" y="0" type="line"/>
      <point x="482" y="300" type="line"/>
      <point x="504" y="650" type="line"/>
      <point x="401" y="300" type="line"/>
      <point x="286" y="0" type="line"/>
      <point x="30" y="0" type="line" name="ab01"/>
      <point x="31" y="1500" type="line" name="at01"/>
    </contour>
  </outline>
</glyph>
<glyph name="Y" format="2">
  <advance width="1300"/>
  <unicode hex="0059"/>
  <outline>
    <contour>
      <point x="518" y="1143" type="line" name="hr00"/>
      <point x="560" y="773" type="line"/>
      <point x="683" y="1143" type="line"/>
      <point x="928" y="1500" type="line"/>
      <point x="1263" y="1500" type="line" name="sv01"/>
      <point x="680" y="650" type="line"/>
      <point x="565" y="0" type="line" name="sv02"/>
      <point x="214" y="0" type="line" name="ab01"/>
      <point x="329" y="650" type="line"/>
      <point x="50" y="1500" type="line" name="at01"/>
      <point x="393" y="1520" type="line" name="at02"/>
    </contour>
  </outline>
</glyph>
<glyph name="Z" format="2">
  <advance width="1300"/>
  <unicode hex="005A"/>
  <outline>
    <contour>
      <point x="1100" y="228" type="line" name="hr00"/>
      <point x="1087" y="0" type="line" name="sv01"/>
      <point x="48" y="0" type="line" name="ab01"/>
      <point x="30" y="86" type="line"/>
      <point x="765" y="1187" type="line"/>
      <point x="922" y="1300" type="line"/>
      <point x="787" y="1272" type="line"/>
      <point x="329" y="1272" type="line"/>
      <point x="342" y="1500" type="line" name="at01"/>
      <point x="1256" y="1500" type="line" name="sv02"/>
      <point x="1287" y="1442" type="line"/>
      <point x="541" y="314" type="line"/>
      <point x="387" y="200" type="line"/>
      <point x="524" y="228" type="line"/>
    </contour>
  </outline>
</glyph>
<glyph name="bracketleft" format="2">
  <advance width="1300"/>
  <unicode hex="005B"/>
  <outline>
    <contour>
      <point x="459" y="1288" type="line" name="hr00"/>
      <point x="474" y="1520" type="line" name="at01"/>
      <point x="1174" y="1520" type="line" name="sv01"/>
      <point x="1135" y="1302" type="line"/>
      <point x="785" y="1302" type="line"/>
      <point x="774" y="1154" type="line"/>
      <point x="565" y="-31" type="line"/>
      <point x="524" y="-179" type="line"/>
      <point x="874" y="-179" type="line"/>
      <point x="835" y="-398" type="line" name="sv02"/>
      <point x="135" y="-398" type="line" name="av01"/>
      <point x="202" y="-166" type="line"/>
    </contour>
  </outline>
</glyph>
<glyph name="backslash" format="2">
  <advance width="1300"/>
  <unicode hex="005C"/>
  <outline>
    <contour>
      <point x="287" y="1600" type="line" name="av01"/>
      <point x="609" y="1600" type="line" name="sv01"/>
      <point x="1016" y="-100" type="line" name="sv02"/>
      <point x="683" y="-100" type="line" name="av02"/>
    </contour>
  </outline>
</glyph>
<glyph name="bracketright" format="2">
  <advance width="1300"/>
  <unicode hex="005D"/>
  <outline>
    <contour>
      <point x="862" y="-166" type="line" name="hr00"/>
      <point x="847" y="-398" type="line" name="sv01"/>
      <point x="147" y="-398" type="line" name="av01"/>
      <point x="186" y="-179" type="line"/>
      <point x="535" y="-179" type="line"/>
      <point x="546" y="-31" type="line"/>
      <point x="755" y="1154" type="line"/>
      <point x="796" y="1302" type="line"/>
      <point x="447" y="1302" type="line"/>
      <point x="486" y="1520" type="line" name="at01"/>
      <point x="1186" y="1520" type="line" name="sv02"/>
      <point x="1119" y="1288" type="line"/>
    </contour>
  </outline>
</glyph>
<glyph name="asciicircum" format="2">
  <advance width="1300"/>
  <unicode hex="005E"/>
  <outline>
    <contour>
      <point x="1242" y="866" type="line" name="sv01"/>
      <point x="942" y="866" type="line"/>
      <point x="701" y="1200" type="line"/>
      <point x="342" y="868" type="line"/>
      <point x="43" y="868" type="line" name="av01"/>
      <point x="638" y="1500" type="line"/>
      <point x="850" y="1520" type="line"/>
    </contour>
  </outline>
</glyph>
<glyph name="c" format="2">
  <advance width="1300"/>
  <unicode hex="0063"/>
  <outline>
    <contour>
      <point x="1007" y="772" type="line" name="hr00"/>
      <point x="970" y="833"/>
      <point x="862" y="885"/>
      <point x="785" y="885" type="qcurve"/>
      <point x="724" y="885"/>
      <point x="603" y="838"/>
      <point x="502" y="752"/>
      <point x="429" y="629"/>
      <point x="416" y="553" type="qcurve"/>
      <point x="404" y="484"/>
      <point x="437" y="367"/>
      <point x="510" y="283"/>
      <point x="613" y="236"/>
      <point x="671" y="236" type="qcurve"/>
      <point x="723" y="236"/>
      <point x="811" y="255"/>
      <point x="885" y="288"/>
      <point x="943" y="330"/>
      <point x="965" y="353" type="qcurve"/>
      <point x="1051" y="137" type="line"/>
      <point x="1030" y="121"/>
      <point x="950" y="69"/>
      <point x="835" y="19"/>
      <point x="685" y="-17"/>
      <point x="594" y="-17" type="qcurve" name="ab01"/>
      <point x="461" y="-17"/>
      <point x="260" y="75"/>
      <point x="133" y="232"/>
      <point x="86" y="440"/>
      <point x="106" y="555" type="qcurve"/>
      <point x="118" y="624"/>
      <point x="167" y="762"/>
      <point x="245" y="887"/>
      <point x="355" y="994"/>
      <point x="500" y="1072"/>
      <point x="684" y="1117"/>
      <point x="797" y="1117" type="qcurve" name="at01"/>
      <point x="931" y="1117"/>
      <point x="1138" y="1042"/>
      <point x="1201" y="957" type="qcurve"/>
    </contour>
  </outline>
</glyph>
<glyph name="e" format="2">
  <advance width="1300"/>
  <unicode hex="0065"/>
  <outline>
    <contour>
      <point x="1078" y="158" type="line" name="hr00"/>
      <point x="1032" y="121"/>
      <point x="928" y="58"/>
      <point x="808" y="11"/>
      <point x="668" y="-16"/>
      <point x="586" y="-16" type="qcurve" name="ab01"/>
      <point x="442" y="-16"/>
      <point x="239" y="78"/>
      <point x="119" y="235"/>
      <point x="80" y="439"/>
      <point x="100" y="550" type="qcurve"/>
      <point x="112" y="621"/>
      <point x="164" y="760"/>
      <point x="243" y="886"/>
      <point x="351" y="993"/>
      <point x="488" y="1072"/>
      <point x="654" y="1117"/>
      <point x="752" y="1117" type="qcurve" name="at01"/>
      <point x="872" y="1117"/>
      <point x="1048" y="1046"/>
      <point x="1155" y="918"/>
      <point x="1192" y="740"/>
      <point x="1173" y="632" type="qcurve"/>
      <point x="1168" y="605"/>
      <point x="1146" y="517"/>
      <point x="1132" y="466" type="qcurve" name="sv01"/>
      <point x="395" y="466" type="line" name="av01"/>
      <point x="387" y="412"/>
      <point x="400" y="318"/>
      <point x="456" y="249"/>
      <point x="560" y="210"/>
      <point x="644" y="210" type="qcurve"/>
      <point x="696" y="210"/>
      <point x="777" y="233"/>
      <point x="839" y="264"/>
      <point x="885" y="298"/>
      <point x="901" y="310" type="qcurve"/>
    </contour>
    <contour>
      <point x="886" y="672" type="line"/>
      <point x="894" y="718"/>
      <point x="882" y="800"/>
      <point x="840" y="863"/>
      <point x="769" y="900"/>
      <point x="718" y="900" type="qcurve"/>
      <point x="667" y="900"/>
      <point x="592" y="870"/>
      <point x="537" y="825"/>
      <point x="501" y="775"/>
      <point x="490" y="756" type="qcurve"/>
      <point x="381" y="653" type="line"/>
      <point x="557" y="671" type="line"/>
    </contour>
  </outline>
</glyph>
<glyph name="f" format="2">
  <advance width="1300"/>
  <unicode hex="0066"/>
  <outline>
    <contour>
      <point x="487" y="876" type="line" name="hr00"/>
      <point x="231" y="876" type="line"/>
      <point x="270" y="1100" type="line" name="at01"/>
      <point x="526" y="1100" type="line"/>
      <point x="551" y="1242" type="line"/>
      <point x="570" y="1339"/>
      <point x="637" y="1485"/>
      <point x="741" y="1581"/>
      <point x="887" y="1623"/>
      <point x="985" y="1617" type="qcurve" name="av01"/>
      <point x="1037" y="1614"/>
      <point x="1128" y="1589"/>
      <point x="1202" y="1556"/>
      <point x="1261" y="1518"/>
      <point x="1282" y="1501" type="qcurve"/>
      <point x="1118" y="1341" type="line"/>
      <point x="1089" y="1361"/>
      <point x="1021" y="1388"/>
      <point x="977" y="1393" type="qcurve"/>
      <point x="951" y="1396"/>
      <point x="909" y="1383"/>
      <point x="878" y="1345"/>
      <point x="855" y="1281"/>
      <point x="847" y="1233" type="qcurve"/>
      <point x="823" y="1100" type="line"/>
      <point x="1120" y="1100" type="line" name="sv01"/>
      <point x="1054" y="876" type="line"/>
      <point x="798" y="876" type="line"/>
      <point x="644" y="0" type="line"/>
      <point x="624" y="-112"/>
      <point x="568" y="-279"/>
      <point x="473" y="-387"/>
      <point x="326" y="-435"/>
      <point x="214" y="-428" type="qcurve" name="av02"/>
      <point x="177" y="-426"/>
      <point x="113" y="-413"/>
      <point x="62" y="-398"/>
      <point x="26" y="-382"/>
      <point x="16" y="-376" type="qcurve"/>
      <point x="106" y="-179" type="line"/>
      <point x="107" y="-179"/>
      <point x="108" y="-180"/>
      <point x="109" y="-180" type="qcurve"/>
      <point x="128" y="-188"/>
      <point x="175" y="-204"/>
      <point x="201" y="-202" type="qcurve"/>
      <point x="229" y="-199"/>
      <point x="271" y="-169"/>
      <point x="301" y="-116"/>
      <point x="323" y="-44"/>
      <point x="333" y="0" type="qcurve"/>
    </contour>
  </outline>
  <guideline angle="0" color="1,0,0,1" x="0" y="3298"/>
</glyph>
<glyph name="h" format="2">
  <advance width="1300"/>
  <unicode hex="0068"/>
  <outline>
    <contour>
      <point x="409" y="0" type="line" name="hr00"/>
      <point x="92" y="0" type="line" name="ab01"/>
      <point x="329" y="1339" type="line"/>
      <point x="329" y="1568" type="line"/>
      <point x="692" y="1600" type="line" name="av01"/>
      <point x="586" y="1000" type="line"/>
      <point x="680" y="1100" type="line"/>
      <point x="726" y="1110"/>
      <point x="830" y="1117"/>
      <point x="894" y="1117" type="qcurve" name="at01"/>
      <point x="1071" y="1117"/>
      <point x="1221" y="911"/>
      <point x="1187" y="718" type="qcurve"/>
      <point x="1060" y="0" type="line" name="sv01"/>
      <point x="734" y="0" type="line"/>
      <point x="858" y="698" type="line"/>
      <point x="867" y="750"/>
      <point x="856" y="824"/>
      <point x="827" y="871"/>
      <point x="784" y="892"/>
      <point x="762" y="892" type="qcurve"/>
      <point x="720" y="892"/>
      <point x="658" y="877"/>
      <point x="609" y="853"/>
      <point x="570" y="823"/>
      <point x="552" y="808" type="qcurve"/>
    </contour>
  </outline>
</glyph>
<glyph name="i" format="2">
  <advance width="1300"/>
  <unicode hex="0069"/>
  <outline>
    <contour>
      <point x="588" y="1501" type="line" name="at01"/>
      <point x="925" y="1501" type="line" name="sv01"/>
      <point x="879" y="1240" type="line"/>
      <point x="542" y="1240" type="line" name="mv01"/>
    </contour>
    <contour>
      <point x="570" y="920" type="line"/>
      <point x="406" y="876" type="line"/>
      <point x="212" y="876" type="line"/>
      <point x="212" y="1100" type="line" name="at02"/>
      <point x="854" y="1100" type="line" name="sv02"/>
      <point x="729" y="423" type="line"/>
      <point x="722" y="384"/>
      <point x="733" y="315"/>
      <point x="764" y="265"/>
      <point x="812" y="236"/>
      <point x="842" y="236" type="qcurve"/>
      <point x="875" y="236"/>
      <point x="932" y="247"/>
      <point x="987" y="269"/>
      <point x="1042" y="305"/>
      <point x="1072" y="330" type="qcurve"/>
      <point x="1090" y="98" type="line"/>
      <point x="1075" y="87"/>
      <point x="1025" y="49"/>
      <point x="950" y="11"/>
      <point x="845" y="-17"/>
      <point x="774" y="-17" type="qcurve" name="ab01"/>
      <point x="659" y="-17"/>
      <point x="504" y="55"/>
      <point x="417" y="178"/>
      <point x="393" y="341"/>
      <point x="409" y="432" type="qcurve"/>
      <point x="473" y="800" type="line"/>
    </contour>
  </outline>
</glyph>
<glyph name="j" format="2">
  <advance width="1300"/>
  <unicode hex="006A"/>
  <outline>
    <contour>
      <point x="855" y="1501" type="line" name="at02"/>
      <point x="1192" y="1501" type="line" name="sv01"/>
      <point x="1146" y="1240" type="line" name="mv01"/>
      <point x="809" y="1240" type="line"/>
    </contour>
    <contour>
      <point x="834" y="920" type="line"/>
      <point x="670" y="876" type="line"/>
      <point x="475" y="876" type="line"/>
      <point x="476" y="1100" type="line" name="at01"/>
      <point x="1117" y="1100" type="line" name="sv02"/>
      <point x="911" y="-68" type="line"/>
      <point x="895" y="-159"/>
      <point x="813" y="-322"/>
      <point x="683" y="-445"/>
      <point x="503" y="-517"/>
      <point x="388" y="-517" type="qcurve" name="ab01"/>
      <point x="317" y="-517"/>
      <point x="221" y="-489"/>
      <point x="159" y="-451"/>
      <point x="124" y="-413"/>
      <point x="112" y="-402" type="qcurve"/>
      <point x="212" y="-170" type="line"/>
      <point x="255" y="-220"/>
      <point x="347" y="-264"/>
      <point x="413" y="-264" type="qcurve"/>
      <point x="443" y="-264"/>
      <point x="497" y="-236"/>
      <point x="542" y="-187"/>
      <point x="575" y="-118"/>
      <point x="582" y="-77" type="qcurve"/>
      <point x="737" y="800" type="line"/>
    </contour>
  </outline>
</glyph>
<glyph name="n" format="2">
  <advance width="1300"/>
  <unicode hex="006E"/>
  <outline>
    <contour>
      <point x="412" y="0" type="line" name="hr00"/>
      <point x="95" y="0" type="line" name="ab01"/>
      <point x="289" y="1100" type="line"/>
      <point x="609" y="1120" type="line" name="at01"/>
      <point x="588" y="1000" type="line"/>
      <point x="683" y="1100" type="line"/>
      <point x="722" y="1110"/>
      <point x="811" y="1117"/>
      <point x="869" y="1117" type="qcurve" name="at02"/>
      <point x="960" y="1117"/>
      <point x="1096" y="1063"/>
      <point x="1180" y="964"/>
      <point x="1209" y="823"/>
      <point x="1193" y="736" type="qcurve"/>
      <point x="1064" y="0" type="line" name="sv01"/>
      <point x="747" y="0" type="line"/>
      <point x="876" y="736" type="line"/>
      <point x="883" y="777"/>
      <point x="870" y="836"/>
      <point x="836" y="874"/>
      <point x="787" y="892"/>
      <point x="759" y="892" type="qcurve"/>
      <point x="696" y="892"/>
      <point x="601" y="851"/>
      <point x="554" y="808" type="qcurve"/>
    </contour>
  </outline>
</glyph>
<glyph name="o" format="2">
  <advance width="1300"/>
  <unicode hex="006F"/>
  <outline>
    <contour>
      <point x="556" y="-17" type="qcurve" name="ab01"/>
      <point x="436" y="-17"/>
      <point x="251" y="70"/>
      <point x="134" y="223"/>
      <point x="90" y="431"/>
      <point x="111" y="553" type="qcurve"/>
      <point x="132" y="674"/>
      <point x="247" y="881"/>
      <point x="417" y="1032"/>
      <point x="634" y="1117"/>
      <point x="757" y="1117" type="qcurve" name="at01"/>
      <point x="877" y="1117"/>
      <point x="1060" y="1032"/>
      <point x="1174" y="881"/>
      <point x="1215" y="674"/>
      <point x="1194" y="553" type="qcurve"/>
      <point x="1173" y="431"/>
      <point x="1061" y="223"/>
      <point x="894" y="70"/>
      <point x="680" y="-17"/>
    </contour>
    <contour>
      <point x="863" y="528" type="qcurve"/>
      <point x="875" y="596"/>
      <point x="875" y="728"/>
      <point x="842" y="833"/>
      <point x="771" y="897"/>
      <point x="713" y="897" type="qcurve"/>
      <point x="657" y="897"/>
      <point x="567" y="842"/>
      <point x="498" y="750"/>
      <point x="452" y="633"/>
      <point x="441" y="571" type="qcurve"/>
      <point x="429" y="502"/>
      <point x="431" y="370"/>
      <point x="467" y="267"/>
      <point x="540" y="203"/>
      <point x="599" y="203" type="qcurve"/>
      <point x="653" y="203"/>
      <point x="741" y="258"/>
      <point x="808" y="350"/>
      <point x="852" y="466"/>
    </contour>
  </outline>
</glyph>
<glyph name="p" format="2">
  <advance width="1300"/>
  <unicode hex="0070"/>
  <outline>
    <contour>
      <point x="486" y="200" type="line" name="hr00"/>
      <point x="564" y="200" type="line"/>
      <point x="631" y="200"/>
      <point x="760" y="259"/>
      <point x="867" y="361"/>
      <point x="942" y="498"/>
      <point x="956" y="576" type="qcurve"/>
      <point x="971" y="657"/>
      <point x="959" y="779"/>
      <point x="914" y="860"/>
      <point x="842" y="900"/>
      <point x="797" y="900" type="qcurve"/>
      <point x="770" y="900"/>
      <point x="714" y="884"/>
      <point x="661" y="859"/>
      <point x="613" y="827"/>
      <point x="594" y="811" type="qcurve"/>
    </contour>
    <contour>
      <point x="37" y="-500" type="line" name="ab01"/>
      <point x="319" y="1100" type="line"/>
      <point x="648" y="1120" type="line" name="at02"/>
      <point x="617" y="944" type="line"/>
      <point x="771" y="1110" type="line"/>
      <point x="792" y="1113"/>
      <point x="838" y="1117"/>
      <point x="862" y="1117" type="qcurve" name="at01"/>
      <point x="955" y="1117"/>
      <point x="1117" y="1039"/>
      <point x="1228" y="894"/>
      <point x="1274" y="690"/>
      <point x="1252" y="564" type="qcurve"/>
      <point x="1231" y="441"/>
      <point x="1097" y="234"/>
      <point x="899" y="84"/>
      <point x="649" y="0"/>
      <point x="512" y="0" type="qcurve" name="sv01"/>
      <point x="451" y="0" type="line" name="ab02"/>
      <point x="363" y="-500" type="line" name="sv02"/>
    </contour>
  </outline>
</glyph>
<glyph name="q" format="2">
  <advance width="1300"/>
  <unicode hex="0071"/>
  <outline>
    <contour>
      <point x="861" y="891" type="line" name="hr00"/>
      <point x="832" y="895"/>
      <point x="776" y="900"/>
      <point x="738" y="900" type="qcurve"/>
      <point x="696" y="900"/>
      <point x="620" y="868"/>
      <point x="554" y="814"/>
      <point x="498" y="741"/>
      <point x="454" y="658"/>
      <point x="424" y="569"/>
      <point x="416" y="526" type="qcurve"/>
      <point x="401" y="442"/>
      <point x="416" y="320"/>
      <point x="460" y="239"/>
      <point x="529" y="200"/>
      <point x="568" y="200" type="qcurve"/>
      <point x="604" y="200"/>
      <point x="658" y="211"/>
      <point x="700" y="232"/>
      <point x="735" y="260"/>
      <point x="753" y="278" type="qcurve"/>
    </contour>
    <contour>
      <point x="728" y="136" type="line"/>
      <point x="586" y="-8" type="line"/>
      <point x="536" y="-17"/>
      <point x="492" y="-17" type="qcurve" name="ab02"/>
      <point x="400" y="-17"/>
      <point x="236" y="58"/>
      <point x="122" y="198"/>
      <point x="72" y="400"/>
      <point x="95" y="526" type="qcurve"/>
      <point x="119" y="663"/>
      <point x="250" y="882"/>
      <point x="435" y="1035"/>
      <point x="661" y="1117"/>
      <point x="780" y="1117" type="qcurve" name="at01"/>
      <point x="844" y="1117"/>
      <point x="977" y="1099"/>
      <point x="1095" y="1074"/>
      <point x="1189" y="1047"/>
      <point x="1213" y="1038" type="qcurve"/>
      <point x="942" y="-500" type="line" name="sv01"/>
      <point x="616" y="-500" type="line" name="ab01"/>
    </contour>
  </outline>
</glyph>
<glyph name="v" format="2">
  <advance width="1300"/>
  <unicode hex="0076"/>
  <outline>
    <contour>
      <point x="509" y="700" type="line" name="hr00"/>
      <point x="512" y="300" type="line"/>
      <point x="655" y="700" type="line"/>
      <point x="856" y="1100" type="line" name="sv01"/>
      <point x="1173" y="1120" type="line" name="at02"/>
      <point x="599" y="-17" type="line" name="ab01"/>
      <point x="286" y="0" type="line"/>
      <point x="129" y="1100" type="line" name="at03"/>
      <point x="447" y="1120" type="line" name="at01"/>
    </contour>
  </outline>
  <guideline angle="0" color="1,0,0,1" x="0" y="381"/>
</glyph>
<glyph name="w" format="2">
  <advance width="1300"/>
  <unicode hex="0077"/>
  <outline>
    <contour>
      <point x="766" y="600" type="line" name="hr00"/>
      <point x="766" y="300" type="line"/>
      <point x="776" y="300" type="line"/>
      <point x="833" y="700" type="line"/>
      <point x="977" y="1100" type="line" name="sv01"/>
      <point x="1273" y="1120" type="line" name="at03"/>
      <point x="857" y="0" type="line" name="sv02"/>
      <point x="591" y="0" type="line"/>
      <point x="562" y="400" type="line"/>
      <point x="582" y="600" type="line"/>
      <point x="530" y="400" type="line"/>
      <point x="364" y="0" type="line"/>
      <point x="79" y="0" type="line" name="ab01"/>
      <point x="79" y="1100" type="line" name="at01"/>
      <point x="370" y="1120" type="line" name="at02"/>
      <point x="368" y="700" type="line"/>
      <point x="285" y="300" type="line"/>
      <point x="295" y="300" type="line"/>
      <point x="400" y="600" type="line"/>
      <point x="517" y="900" type="line" name="av01"/>
      <point x="752" y="900" type="line" name="sv03"/>
    </contour>
  </outline>
  <guideline angle="0" color="1,0,0,1" x="0" y="540"/>
  <guideline angle="0" color="1,0,0,1" x="0" y="640"/>
  <guideline angle="90" color="1,0,0,1" x="467" y="0"/>
  <guideline angle="90" color="1,0,0,1" x="1040" y="0"/>
  <guideline angle="90" color="1,0,0,1" x="743" y="0"/>
</glyph>
<glyph name="braceleft" format="2">
  <advance width="1300"/>
  <unicode hex="007B"/>
  <outline>
    <contour>
      <point x="1078" y="1260" type="line" name="hr00"/>
      <point x="1048" y="1280"/>
      <point x="965" y="1305"/>
      <point x="930" y="1305" type="qcurve"/>
      <point x="900" y="1303"/>
      <point x="859" y="1274"/>
      <point x="831" y="1222"/>
      <point x="812" y="1147"/>
      <point x="804" y="1099" type="qcurve"/>
      <point x="762" y="864" type="line"/>
      <point x="752" y="808"/>
      <point x="704" y="710"/>
      <point x="642" y="631"/>
      <point x="573" y="570"/>
      <point x="543" y="550" type="qcurve" name="iv01"/>
      <point x="567" y="530"/>
      <point x="614" y="470"/>
      <point x="648" y="390"/>
      <point x="662" y="293"/>
      <point x="652" y="238" type="qcurve" name="mh01"/>
      <point x="609" y="-2" type="line"/>
      <point x="601" y="-50"/>
      <point x="593" y="-126"/>
      <point x="602" y="-180"/>
      <point x="633" y="-208"/>
      <point x="663" y="-208" type="qcurve"/>
      <point x="698" y="-208"/>
      <point x="789" y="-183"/>
      <point x="827" y="-163" type="qcurve"/>
      <point x="890" y="-348" type="line"/>
      <point x="855" y="-363"/>
      <point x="789" y="-390"/>
      <point x="718" y="-409"/>
      <point x="635" y="-420"/>
      <point x="583" y="-420" type="qcurve" name="av01"/>
      <point x="470" y="-420"/>
      <point x="331" y="-356"/>
      <point x="262" y="-244"/>
      <point x="252" y="-91"/>
      <point x="267" y="-2" type="qcurve"/>
      <point x="310" y="238" type="line"/>
      <point x="326" y="327"/>
      <point x="313" y="432"/>
      <point x="269" y="442" type="qcurve"/>
      <point x="134" y="462" type="line"/>
      <point x="166" y="640" type="line"/>
      <point x="307" y="660" type="line"/>
      <point x="355" y="671"/>
      <point x="405" y="776"/>
      <point x="420" y="864" type="qcurve"/>
      <point x="462" y="1099" type="line"/>
      <point x="478" y="1188"/>
      <point x="541" y="1341"/>
      <point x="651" y="1453"/>
      <point x="812" y="1517"/>
      <point x="925" y="1517" type="qcurve" name="at01"/>
      <point x="977" y="1517"/>
      <point x="1056" y="1506"/>
      <point x="1120" y="1487"/>
      <point x="1177" y="1461"/>
      <point x="1207" y="1445" type="qcurve"/>
    </contour>
  </outline>
  <guideline angle="0" color="1,0,0,1" x="0" y="550"/>
  <guideline angle="0" color="1,0,0,1" x="0" y="475"/>
</glyph>
<glyph name="bar" format="2">
  <advance width="1300"/>
  <unicode hex="007C"/>
  <outline>
    <contour>
      <point x="983" y="1520" type="line" name="at01"/>
      <point x="648" y="-380" type="line" name="sv01"/>
      <point x="316" y="-380" type="line" name="av01"/>
      <point x="647" y="1500" type="line"/>
    </contour>
  </outline>
</glyph>
<glyph name="exclamdown" format="2">
  <advance width="1300"/>
  <unicode hex="00A1"/>
  <outline>
    <contour>
      <point x="227" y="-400" type="line" name="av01"/>
      <point x="413" y="656" type="line"/>
      <point x="719" y="691" type="line" name="av02"/>
      <point x="527" y="-400" type="line" name="sv01"/>
    </contour>
    <contour>
      <point x="779" y="951" type="qcurve"/>
      <point x="773" y="917"/>
      <point x="738" y="858"/>
      <point x="685" y="813"/>
      <point x="621" y="787"/>
      <point x="587" y="787" type="qcurve" name="av03"/>
      <point x="553" y="787"/>
      <point x="499" y="813"/>
      <point x="462" y="858"/>
      <point x="447" y="917"/>
      <point x="453" y="951" type="qcurve"/>
      <point x="459" y="984"/>
      <point x="495" y="1045"/>
      <point x="546" y="1090"/>
      <point x="610" y="1117"/>
      <point x="644" y="1117" type="qcurve" name="at01"/>
      <point x="677" y="1117"/>
      <point x="733" y="1090"/>
      <point x="771" y="1045"/>
      <point x="785" y="984"/>
    </contour>
  </outline>
</glyph>
<glyph name="cent" format="2">
  <advance width="1300"/>
  <unicode hex="00A2"/>
  <outline>
    <contour>
      <point x="981" y="814" type="line" name="hr00"/>
      <point x="961" y="837"/>
      <point x="922" y="867"/>
      <point x="904" y="877" type="qcurve" name="sh01"/>
      <point x="788" y="223" type="line" name="sh02"/>
      <point x="823" y="236"/>
      <point x="891" y="269"/>
      <point x="922" y="288" type="qcurve"/>
      <point x="1000" y="93" type="line"/>
      <point x="942" y="58"/>
      <point x="817" y="7"/>
      <point x="748" y="-5" type="qcurve"/>
      <point x="716" y="-190" type="line" name="sv01"/>
      <point x="426" y="-190" type="line" name="av02"/>
      <point x="460" y="6" type="line"/>
      <point x="372" y="34"/>
      <point x="252" y="147"/>
      <point x="185" y="298"/>
      <point x="170" y="479"/>
      <point x="187" y="575" type="qcurve" name="ah01"/>
      <point x="202" y="662"/>
      <point x="276" y="827"/>
      <point x="393" y="966"/>
      <point x="552" y="1069"/>
      <point x="652" y="1095" type="qcurve"/>
      <point x="689" y="1302" type="line"/>
      <point x="985" y="1340" type="line" name="av01"/>
      <point x="944" y="1105" type="line"/>
      <point x="1008" y="1090"/>
      <point x="1113" y="1021"/>
      <point x="1158" y="961" type="qcurve"/>
    </contour>
    <contour>
      <point x="468" y="563" type="qcurve" name="sh03"/>
      <point x="446" y="436"/>
      <point x="488" y="271"/>
      <point x="548" y="232" type="qcurve" name="ah03"/>
      <point x="661" y="873" type="line" name="ah02"/>
      <point x="590" y="840"/>
      <point x="491" y="690"/>
    </contour>
  </outline>
</glyph>
<glyph name="yen" format="2">
  <advance width="1300"/>
  <unicode hex="00A5"/>
  <outline>
    <contour>
      <point x="39" y="589" type="line" name="av02"/>
      <point x="348" y="589" type="line" name="mv01"/>
      <point x="359" y="650" type="line"/>
      <point x="341" y="700" type="line" name="mh01"/>
      <point x="58" y="700" type="line" name="mh02"/>
      <point x="92" y="889" type="line" name="av01"/>
      <point x="279" y="889" type="line" name="mv02"/>
      <point x="78" y="1500" type="line" name="ih02"/>
      <point x="423" y="1520" type="line" name="at02"/>
      <point x="548" y="1143" type="line"/>
      <point x="589" y="773" type="line" name="ih01"/>
      <point x="713" y="1143" type="line"/>
      <point x="958" y="1500" type="line" name="at01"/>
      <point x="1293" y="1500" type="line" name="ih03"/>
      <point x="874" y="889" type="line"/>
      <point x="1092" y="889" type="line" name="sv01"/>
      <point x="1058" y="700" type="line" name="sv02"/>
      <point x="743" y="700" type="line"/>
      <point x="710" y="650" type="line"/>
      <point x="699" y="589" type="line"/>
      <point x="1039" y="589" type="line" name="sv03"/>
      <point x="1006" y="400" type="line" name="sv04"/>
      <point x="666" y="400" type="line"/>
      <point x="595" y="0" type="line" name="sv05"/>
      <point x="244" y="0" type="line" name="ab01"/>
      <point x="315" y="400" type="line"/>
      <point x="6" y="400" type="line" name="sv06"/>
    </contour>
  </outline>
</glyph>
<glyph name="brokenbar" format="2">
  <advance width="1300"/>
  <unicode hex="00A6"/>
  <outline>
    <contour>
      <point x="1010" y="1520" type="line" name="at01"/>
      <point x="865" y="700" type="line" name="sv01"/>
      <point x="523" y="700" type="line" name="av01"/>
      <point x="664" y="1500" type="line"/>
    </contour>
    <contour>
      <point x="806" y="362" type="line" name="sv02"/>
      <point x="671" y="-400" type="line" name="sv03"/>
      <point x="329" y="-400" type="line" name="av03"/>
      <point x="464" y="362" type="line" name="av02"/>
    </contour>
  </outline>
</glyph>
<glyph name="macron" format="2">
  <advance width="1300"/>
  <unicode hex="00AF"/>
  <outline>
    <contour>
      <point x="319" y="1500" type="line" name="at01"/>
      <point x="1019" y="1500" type="line" name="sv01"/>
      <point x="980" y="1282" type="line" name="sv02"/>
      <point x="280" y="1282" type="line"/>
    </contour>
  </outline>
</glyph>
<glyph name="plusminus" format="2">
  <advance width="1300"/>
  <unicode hex="00B1"/>
  <outline>
    <contour>
      <point x="239" y="862" type="line" name="av02"/>
      <point x="599" y="862" type="line"/>
      <point x="672" y="1196" type="line" name="av01"/>
      <point x="892" y="1196" type="line" name="sv01"/>
      <point x="819" y="862" type="line"/>
      <point x="1179" y="862" type="line" name="sv02"/>
      <point x="1143" y="702" type="line" name="sv03"/>
      <point x="783" y="702" type="line"/>
      <point x="713" y="382" type="line" name="sv04"/>
      <point x="493" y="382" type="line" name="av04"/>
      <point x="563" y="702" type="line"/>
      <point x="203" y="702" type="line"/>
    </contour>
    <contour>
      <point x="159" y="290" type="line" name="av03"/>
      <point x="1059" y="290" type="line" name="sv05"/>
      <point x="1020" y="88" type="line" name="sv06"/>
      <point x="120" y="88" type="line"/>
    </contour>
  </outline>
</glyph>
<glyph name="periodcentered" format="2">
  <advance width="1300"/>
  <unicode hex="00B7"/>
  <outline>
    <contour>
      <point x="439.949" y="683" type="qcurve" name="hr00"/>
      <point x="446.949" y="724"/>
      <point x="490.949" y="796"/>
      <point x="553.949" y="850"/>
      <point x="630.949" y="881"/>
      <point x="671.949" y="881" type="qcurve" name="av01"/>
      <point x="712.949" y="881"/>
      <point x="778.949" y="850"/>
      <point x="823.949" y="796"/>
      <point x="841.949" y="724"/>
      <point x="834.949" y="683" type="qcurve"/>
      <point x="826.949" y="642"/>
      <point x="783.949" y="569"/>
      <point x="720.949" y="515"/>
      <point x="643.949" y="483"/>
      <point x="602.949" y="483" type="qcurve" name="av02"/>
      <point x="561.949" y="483"/>
      <point x="494.949" y="515"/>
      <point x="450.949" y="569"/>
      <point x="431.949" y="642"/>
    </contour>
  </outline>
</glyph>
<glyph name="cedilla" format="2">
  <advance width="1300"/>
  <unicode hex="00B8"/>
  <outline>
    <contour>
      <point x="719" y="0" type="line" name="sv01"/>
      <point x="743" y="-20"/>
      <point x="761" y="-46" type="qcurve"/>
      <point x="776" y="-69"/>
      <point x="795" y="-132"/>
      <point x="788" y="-171" type="qcurve"/>
      <point x="779" y="-221"/>
      <point x="717" y="-307"/>
      <point x="627" y="-370"/>
      <point x="516" y="-407"/>
      <point x="459" y="-407" type="qcurve" name="av01"/>
      <point x="399" y="-407"/>
      <point x="290" y="-371"/>
      <point x="246" y="-349" type="qcurve"/>
      <point x="195" y="-323"/>
      <point x="150" y="-290" type="qcurve"/>
      <point x="293" y="-131" type="line"/>
      <point x="322" y="-151"/>
      <point x="351" y="-166" type="qcurve"/>
      <point x="375" y="-179"/>
      <point x="430" y="-200"/>
      <point x="452" y="-200" type="qcurve"/>
      <point x="475" y="-200"/>
      <point x="520" y="-175"/>
      <point x="525" y="-147" type="qcurve"/>
      <point x="529" y="-126"/>
      <point x="513" y="-79"/>
      <point x="489" y="-37"/>
      <point x="463" y="-6" name="ab01"/>
      <point x="457" y="0" type="qcurve"/>
    </contour>
  </outline>
</glyph>
<glyph name="Acircumflex" format="2">
  <advance width="1300"/>
  <unicode hex="00C2"/>
  <outline>
    <contour>
      <point x="35" y="0" type="line" name="ab01"/>
      <point x="616" y="1284" type="line"/>
      <point x="680" y="1500" type="line"/>
      <point x="1072" y="1520" type="line" name="at01"/>
      <point x="1234" y="0" type="line" name="sv01"/>
      <point x="900" y="0" type="line"/>
      <point x="872" y="427" type="line" name="sv02"/>
      <point x="530" y="427" type="line" name="av01"/>
      <point x="353" y="0" type="line"/>
    </contour>
    <contour>
      <point x="862" y="1331" type="line" name="mv01"/>
      <point x="763" y="990" type="line" name="mh01"/>
      <point x="627" y="646" type="line"/>
      <point x="851" y="646" type="line"/>
      <point x="840" y="990" type="line" name="mh02"/>
    </contour>
    <contour>
      <point x="1231" y="1620" type="line" name="sv03"/>
      <point x="1011" y="1620" type="line"/>
      <point x="959" y="1723" type="line"/>
      <point x="952" y="1850" type="line"/>
      <point x="899" y="1723" type="line"/>
      <point x="800" y="1620" type="line"/>
      <point x="561" y="1620" type="line" name="av02"/>
      <point x="805" y="1900" type="line"/>
      <point x="1099" y="1920" type="line"/>
    </contour>
  </outline>
</glyph>
<glyph name="Aring" format="2">
  <advance width="1300"/>
  <unicode hex="00C5"/>
  <outline>
    <contour>
      <point x="35" y="0" type="line" name="ab01"/>
      <point x="616" y="1284" type="line"/>
      <point x="680" y="1500" type="line"/>
      <point x="1072" y="1520" type="line" name="at01"/>
      <point x="1234" y="0" type="line" name="sv01"/>
      <point x="900" y="0" type="line"/>
      <point x="872" y="427" type="line" name="sv02"/>
      <point x="530" y="427" type="line" name="av01"/>
      <point x="353" y="0" type="line"/>
    </contour>
    <contour>
      <point x="862" y="1331" type="line" name="mv01"/>
      <point x="763" y="990" type="line" name="mh01"/>
      <point x="627" y="646" type="line"/>
      <point x="851" y="646" type="line"/>
      <point x="840" y="990" type="line" name="mh02"/>
    </contour>
    <contour>
      <point x="974" y="1927" type="qcurve" name="av02"/>
      <point x="1033" y="1927"/>
      <point x="1129" y="1882"/>
      <point x="1192" y="1805"/>
      <point x="1218" y="1701"/>
      <point x="1208" y="1642" type="qcurve" name="sv03"/>
      <point x="1197" y="1583"/>
      <point x="1135" y="1478"/>
      <point x="1045" y="1399"/>
      <point x="934" y="1353"/>
      <point x="875" y="1353" type="qcurve" name="at02"/>
      <point x="816" y="1353"/>
      <point x="719" y="1399"/>
      <point x="655" y="1478"/>
      <point x="627" y="1583"/>
      <point x="638" y="1642" type="qcurve" name="av03"/>
      <point x="648" y="1701"/>
      <point x="712" y="1805"/>
      <point x="803" y="1882"/>
      <point x="915" y="1927"/>
    </contour>
    <contour>
      <point x="907" y="1542" type="qcurve"/>
      <point x="927" y="1542"/>
      <point x="965" y="1558"/>
      <point x="996" y="1585"/>
      <point x="1017" y="1621"/>
      <point x="1021" y="1641" type="qcurve" name="sv04"/>
      <point x="1024" y="1661"/>
      <point x="1015" y="1696"/>
      <point x="994" y="1723"/>
      <point x="961" y="1738"/>
      <point x="941" y="1738" type="qcurve"/>
      <point x="921" y="1738"/>
      <point x="883" y="1723"/>
      <point x="852" y="1696"/>
      <point x="830" y="1661"/>
      <point x="827" y="1641" type="qcurve" name="av04"/>
      <point x="823" y="1621"/>
      <point x="832" y="1585"/>
      <point x="854" y="1558"/>
      <point x="887" y="1542"/>
    </contour>
  </outline>
</glyph>
<glyph name="Ccedilla" format="2">
  <advance width="1300"/>
  <unicode hex="00C7"/>
  <outline>
    <contour>
      <point x="1048" y="133" type="line" name="hr01"/>
      <point x="933" y="52"/>
      <point x="695" y="-17"/>
      <point x="565" y="-17" type="qcurve" name="ab01"/>
      <point x="462" y="-17"/>
      <point x="293" y="40"/>
      <point x="164" y="143"/>
      <point x="74" y="287"/>
      <point x="27" y="461"/>
      <point x="21" y="662"/>
      <point x="40" y="769" type="qcurve"/>
      <point x="58" y="870"/>
      <point x="114" y="1059"/>
      <point x="200" y="1225"/>
      <point x="321" y="1363"/>
      <point x="487" y="1462"/>
      <point x="703" y="1517"/>
      <point x="840" y="1517" type="qcurve" name="at01"/>
      <point x="904" y="1517"/>
      <point x="1025" y="1494"/>
      <point x="1133" y="1450"/>
      <point x="1225" y="1386"/>
      <point x="1261" y="1344" type="qcurve"/>
      <point x="1081" y="1160" type="line"/>
      <point x="1052" y="1182"/>
      <point x="986" y="1222"/>
      <point x="917" y="1252"/>
      <point x="846" y="1270"/>
      <point x="812" y="1270" type="qcurve"/>
      <point x="717" y="1270"/>
      <point x="575" y="1192"/>
      <point x="474" y="1057"/>
      <point x="408" y="875"/>
      <point x="390" y="772" type="qcurve"/>
      <point x="379" y="711"/>
      <point x="374" y="584"/>
      <point x="388" y="464"/>
      <point x="424" y="358"/>
      <point x="485" y="279"/>
      <point x="574" y="233"/>
      <point x="633" y="233" type="qcurve"/>
      <point x="667" y="233"/>
      <point x="735" y="244"/>
      <point x="813" y="269"/>
      <point x="906" y="310"/>
      <point x="965" y="340" type="qcurve"/>
    </contour>
    <contour>
      <point x="713" y="0" type="line" name="sv01"/>
      <point x="737" y="-20"/>
      <point x="755" y="-46" type="qcurve"/>
      <point x="770" y="-69"/>
      <point x="789" y="-132"/>
      <point x="782" y="-171" type="qcurve"/>
      <point x="773" y="-221"/>
      <point x="711" y="-307"/>
      <point x="621" y="-370"/>
      <point x="510" y="-407"/>
      <point x="453" y="-407" type="qcurve" name="av01"/>
      <point x="393" y="-407"/>
      <point x="284" y="-371"/>
      <point x="240" y="-349" type="qcurve"/>
      <point x="189" y="-323"/>
      <point x="144" y="-290" type="qcurve"/>
      <point x="287" y="-131" type="line"/>
      <point x="316" y="-151"/>
      <point x="345" y="-166" type="qcurve"/>
      <point x="369" y="-179"/>
      <point x="424" y="-200"/>
      <point x="446" y="-200" type="qcurve"/>
      <point x="469" y="-200"/>
      <point x="514" y="-175"/>
      <point x="519" y="-147" type="qcurve"/>
      <point x="523" y="-126"/>
      <point x="507" y="-79"/>
      <point x="483" y="-37"/>
      <point x="457" y="-6" name="ab02"/>
      <point x="451" y="0" type="qcurve"/>
    </contour>
  </outline>
</glyph>
<glyph name="Igrave" format="2">
  <advance width="1300"/>
  <unicode hex="00CC"/>
  <outline>
    <contour>
      <point x="353" y="1500" type="line" name="at01"/>
      <point x="1231" y="1500" type="line" name="sv01"/>
      <point x="1191" y="1272" type="line"/>
      <point x="918" y="1272" type="line"/>
      <point x="733" y="228" type="line"/>
      <point x="1034" y="228" type="line"/>
      <point x="959" y="0" type="line" name="sv02"/>
      <point x="81" y="0" type="line" name="ab01"/>
      <point x="121" y="228" type="line"/>
      <point x="399" y="228" type="line"/>
      <point x="584" y="1272" type="line"/>
      <point x="278" y="1272" type="line"/>
    </contour>
    <contour>
      <point x="996" y="1600" type="line" name="ah01"/>
      <point x="781" y="1600" type="line" name="sh01"/>
      <point x="553" y="1920" type="line"/>
      <point x="886" y="1900" type="line" name="at02"/>
    </contour>
  </outline>
</glyph>
<glyph name="Iacute" format="2">
  <advance width="1300"/>
  <unicode hex="00CD"/>
  <outline>
    <contour>
      <point x="353" y="1500" type="line" name="at01"/>
      <point x="1231" y="1500" type="line" name="sv01"/>
      <point x="1191" y="1272" type="line"/>
      <point x="918" y="1272" type="line"/>
      <point x="733" y="228" type="line"/>
      <point x="1034" y="228" type="line"/>
      <point x="959" y="0" type="line" name="sv02"/>
      <point x="81" y="0" type="line" name="ab01"/>
      <point x="121" y="228" type="line"/>
      <point x="399" y="228" type="line"/>
      <point x="584" y="1272" type="line"/>
      <point x="278" y="1272" type="line"/>
    </contour>
    <contour>
      <point x="957" y="1900" type="line" name="at02"/>
      <point x="1298" y="1920" type="line"/>
      <point x="956" y="1600" type="line"/>
      <point x="741" y="1600" type="line" name="av01"/>
    </contour>
  </outline>
</glyph>
<glyph name="Idieresis" format="2">
  <advance width="1300"/>
  <unicode hex="00CF"/>
  <outline>
    <contour>
      <point x="353" y="1500" type="line" name="at01"/>
      <point x="1231" y="1500" type="line" name="sv01"/>
      <point x="1191" y="1272" type="line"/>
      <point x="918" y="1272" type="line"/>
      <point x="733" y="228" type="line"/>
      <point x="1034" y="228" type="line"/>
      <point x="959" y="0" type="line" name="sv02"/>
      <point x="81" y="0" type="line" name="ab01"/>
      <point x="121" y="228" type="line"/>
      <point x="399" y="228" type="line"/>
      <point x="584" y="1272" type="line"/>
      <point x="278" y="1272" type="line"/>
    </contour>
    <contour>
      <point x="514" y="1966" type="line" name="av01"/>
      <point x="790" y="1966" type="line" name="mh01"/>
      <point x="743" y="1700" type="line" name="sv03"/>
      <point x="467" y="1700" type="line"/>
    </contour>
    <contour>
      <point x="914" y="1966" type="line" name="av02"/>
      <point x="1190" y="1966" type="line" name="mh02"/>
      <point x="1143" y="1700" type="line" name="sv04"/>
      <point x="867" y="1700" type="line" name="mh03"/>
    </contour>
  </outline>
</glyph>
<glyph name="Ntilde" format="2">
  <advance width="1300"/>
  <unicode hex="00D1"/>
  <outline>
    <contour>
      <point x="739" y="0" type="line" name="hr00"/>
      <point x="443" y="950" type="line"/>
      <point x="433" y="950" type="line"/>
      <point x="442" y="649" type="line"/>
      <point x="327" y="0" type="line"/>
      <point x="5" y="0" type="line" name="ab01"/>
      <point x="227" y="1263" type="line"/>
      <point x="227" y="1500" type="line" name="at01"/>
      <point x="566" y="1520" type="line" name="at02"/>
      <point x="861" y="600" type="line"/>
      <point x="871" y="600" type="line"/>
      <point x="857" y="852" type="line"/>
      <point x="971" y="1500" type="line" name="sv01"/>
      <point x="1297" y="1520" type="line" name="at03"/>
      <point x="1028" y="0" type="line" name="sv02"/>
    </contour>
    <contour>
      <point x="441" y="1627" type="line"/>
      <point x="452" y="1667"/>
      <point x="500" y="1758"/>
      <point x="574" y="1834"/>
      <point x="674" y="1884"/>
      <point x="737" y="1884" type="qcurve"/>
      <point x="786" y="1884"/>
      <point x="849" y="1859"/>
      <point x="897" y="1829"/>
      <point x="942" y="1804"/>
      <point x="973" y="1804" type="qcurve"/>
      <point x="994" y="1804"/>
      <point x="1025" y="1818"/>
      <point x="1047" y="1842"/>
      <point x="1063" y="1874"/>
      <point x="1069" y="1892" type="qcurve"/>
      <point x="1235" y="1882" type="line"/>
      <point x="1224" y="1838"/>
      <point x="1180" y="1745"/>
      <point x="1110" y="1669"/>
      <point x="1011" y="1620"/>
      <point x="944" y="1620" type="qcurve"/>
      <point x="898" y="1620"/>
      <point x="840" y="1645"/>
      <point x="792" y="1675"/>
      <point x="744" y="1700"/>
      <point x="709" y="1700" type="qcurve" name="mv01"/>
      <point x="691" y="1700"/>
      <point x="665" y="1686"/>
      <point x="644" y="1664"/>
      <point x="628" y="1635"/>
      <point x="622" y="1620" type="qcurve"/>
    </contour>
  </outline>
</glyph>
<glyph name="Odieresis" format="2">
  <advance width="1300"/>
  <unicode hex="00D6"/>
  <outline>
    <contour>
      <point x="518" y="-17" type="qcurve" name="ab01"/>
      <point x="420" y="-17"/>
      <point x="265" y="38"/>
      <point x="150" y="139"/>
      <point x="74" y="279"/>
      <point x="36" y="450"/>
      <point x="36" y="645"/>
      <point x="55" y="750" type="qcurve"/>
      <point x="73" y="855"/>
      <point x="141" y="1050"/>
      <point x="237" y="1221"/>
      <point x="361" y="1361"/>
      <point x="511" y="1462"/>
      <point x="688" y="1517"/>
      <point x="789" y="1517" type="qcurve" name="at01"/>
      <point x="936" y="1517"/>
      <point x="1138" y="1395"/>
      <point x="1252" y="1187"/>
      <point x="1280" y="907"/>
      <point x="1252" y="750" type="qcurve"/>
      <point x="1233" y="645"/>
      <point x="1166" y="450"/>
      <point x="1070" y="279"/>
      <point x="946" y="139"/>
      <point x="795" y="38"/>
      <point x="618" y="-17"/>
    </contour>
    <contour>
      <point x="896" y="721" type="qcurve"/>
      <point x="907" y="783"/>
      <point x="923" y="913"/>
      <point x="926" y="1036"/>
      <point x="910" y="1145"/>
      <point x="868" y="1226"/>
      <point x="796" y="1274"/>
      <point x="740" y="1274" type="qcurve"/>
      <point x="688" y="1274"/>
      <point x="604" y="1231"/>
      <point x="537" y="1158"/>
      <point x="486" y="1061"/>
      <point x="447" y="952"/>
      <point x="419" y="837"/>
      <point x="410" y="783" type="qcurve"/>
      <point x="399" y="720"/>
      <point x="383" y="589"/>
      <point x="381" y="465"/>
      <point x="397" y="356"/>
      <point x="439" y="274"/>
      <point x="511" y="226"/>
      <point x="566" y="226" type="qcurve"/>
      <point x="643" y="226"/>
      <point x="755" y="320"/>
      <point x="833" y="466"/>
      <point x="882" y="640"/>
    </contour>
    <contour>
      <point x="538" y="1866" type="line" name="av01"/>
      <point x="814" y="1866" type="line" name="mh01"/>
      <point x="767" y="1600" type="line" name="sv01"/>
      <point x="491" y="1600" type="line"/>
    </contour>
    <contour>
      <point x="938" y="1866" type="line" name="av02"/>
      <point x="1214" y="1866" type="line" name="mh02"/>
      <point x="1167" y="1600" type="line" name="sv02"/>
      <point x="891" y="1600" type="line" name="mh03"/>
    </contour>
  </outline>
</glyph>
<glyph name="multiply" format="2">
  <advance width="1300"/>
  <unicode hex="00D7"/>
  <outline>
    <contour>
      <point x="212" y="119" type="line" name="ih05"/>
      <point x="51" y="269" type="line"/>
      <point x="481" y="633" type="line" name="iv01"/>
      <point x="180" y="998" type="line"/>
      <point x="393" y="1149" type="line" name="ih02"/>
      <point x="641" y="847" type="line"/>
      <point x="690" y="729" type="line" name="ih01"/>
      <point x="733" y="847" type="line"/>
      <point x="1086" y="1149" type="line" name="ih03"/>
      <point x="1247" y="998" type="line"/>
      <point x="817" y="633" type="line" name="iv02"/>
      <point x="1118" y="269" type="line"/>
      <point x="905" y="119" type="line" name="ih06"/>
      <point x="658" y="419" type="line"/>
      <point x="609" y="538" type="line" name="ih04"/>
      <point x="566" y="419" type="line"/>
    </contour>
  </outline>
</glyph>
<glyph name="Ugrave" format="2">
  <advance width="1300"/>
  <unicode hex="00D9"/>
  <outline>
    <contour>
      <point x="1261" y="1500" type="line" name="sv01"/>
      <point x="1091" y="534" type="line"/>
      <point x="1067" y="395"/>
      <point x="956" y="188"/>
      <point x="792" y="51"/>
      <point x="579" y="-17"/>
      <point x="453" y="-17" type="qcurve" name="ab01"/>
      <point x="317" y="-17"/>
      <point x="144" y="69"/>
      <point x="55" y="227"/>
      <point x="42" y="448"/>
      <point x="66" y="582" type="qcurve"/>
      <point x="186" y="1263" type="line"/>
      <point x="186" y="1500" type="line" name="at01"/>
      <point x="563" y="1520" type="line" name="at02"/>
      <point x="394" y="564" type="line"/>
      <point x="380" y="483"/>
      <point x="370" y="355"/>
      <point x="393" y="267"/>
      <point x="457" y="221"/>
      <point x="516" y="221" type="qcurve"/>
      <point x="607" y="221"/>
      <point x="730" y="368"/>
      <point x="756" y="516" type="qcurve"/>
      <point x="929" y="1500" type="line"/>
    </contour>
    <contour>
      <point x="901" y="1600" type="line" name="ah01"/>
      <point x="686" y="1600" type="line" name="sh01"/>
      <point x="458" y="1920" type="line"/>
      <point x="791" y="1900" type="line" name="at03"/>
    </contour>
  </outline>
</glyph>
<glyph name="agrave" format="2">
  <advance width="1300"/>
  <unicode hex="00E0"/>
  <outline>
    <contour>
      <point x="840" y="885" type="line"/>
      <point x="820" y="888"/>
      <point x="786" y="892"/>
      <point x="779" y="893" type="qcurve"/>
      <point x="704" y="893"/>
      <point x="589" y="831"/>
      <point x="507" y="727"/>
      <point x="458" y="588"/>
      <point x="450" y="510" type="qcurve"/>
      <point x="444" y="449"/>
      <point x="449" y="340"/>
      <point x="471" y="257"/>
      <point x="512" y="209"/>
      <point x="541" y="209" type="qcurve"/>
      <point x="575" y="209"/>
      <point x="636" y="232"/>
      <point x="689" y="268"/>
      <point x="730" y="310"/>
      <point x="745" y="329" type="qcurve"/>
    </contour>
    <contour>
      <point x="484" y="-16" type="qcurve" name="ab01"/>
      <point x="407" y="-15"/>
      <point x="293" y="32"/>
      <point x="212" y="112"/>
      <point x="163" y="219"/>
      <point x="140" y="342"/>
      <point x="139" y="476"/>
      <point x="148" y="542" type="qcurve"/>
      <point x="157" y="614"/>
      <point x="205" y="756"/>
      <point x="284" y="884"/>
      <point x="393" y="993"/>
      <point x="534" y="1072"/>
      <point x="709" y="1117"/>
      <point x="813" y="1117" type="qcurve" name="at01"/>
      <point x="874" y="1116"/>
      <point x="936" y="1108" type="qcurve"/>
      <point x="990" y="1101"/>
      <point x="1116" y="1071"/>
      <point x="1174" y="1043" type="qcurve"/>
      <point x="1031" y="209" type="line"/>
      <point x="1017" y="0" type="line" name="sv01"/>
      <point x="695" y="0" type="line" name="ab02"/>
      <point x="723" y="162" type="line"/>
      <point x="568" y="-10" type="line"/>
      <point x="557" y="-12"/>
      <point x="521" y="-17"/>
    </contour>
    <contour>
      <point x="964" y="1200" type="line" name="ah01"/>
      <point x="749" y="1200" type="line" name="sh01"/>
      <point x="521" y="1520" type="line"/>
      <point x="854" y="1500" type="line" name="at02"/>
    </contour>
  </outline>
</glyph>
<glyph name="adieresis" format="2">
  <advance width="1300"/>
  <unicode hex="00E4"/>
  <outline>
    <contour>
      <point x="840" y="885" type="line" name="hr00"/>
      <point x="820" y="888"/>
      <point x="786" y="892"/>
      <point x="779" y="893" type="qcurve"/>
      <point x="704" y="893"/>
      <point x="589" y="831"/>
      <point x="507" y="727"/>
      <point x="458" y="588"/>
      <point x="450" y="510" type="qcurve"/>
      <point x="444" y="449"/>
      <point x="449" y="340"/>
      <point x="471" y="257"/>
      <point x="512" y="209"/>
      <point x="541" y="209" type="qcurve"/>
      <point x="575" y="209"/>
      <point x="636" y="232"/>
      <point x="689" y="268"/>
      <point x="730" y="310"/>
      <point x="745" y="329" type="qcurve"/>
    </contour>
    <contour>
      <point x="484" y="-16" type="qcurve" name="ab01"/>
      <point x="407" y="-15"/>
      <point x="293" y="32"/>
      <point x="212" y="112"/>
      <point x="163" y="219"/>
      <point x="140" y="342"/>
      <point x="139" y="476"/>
      <point x="148" y="542" type="qcurve"/>
      <point x="157" y="614"/>
      <point x="205" y="756"/>
      <point x="284" y="884"/>
      <point x="393" y="993"/>
      <point x="534" y="1072"/>
      <point x="709" y="1117"/>
      <point x="813" y="1117" type="qcurve" name="at01"/>
      <point x="874" y="1116"/>
      <point x="936" y="1108" type="qcurve"/>
      <point x="990" y="1101"/>
      <point x="1116" y="1071"/>
      <point x="1174" y="1043" type="qcurve"/>
      <point x="1031" y="209" type="line"/>
      <point x="1017" y="0" type="line" name="sv01"/>
      <point x="695" y="0" type="line" name="ab02"/>
      <point x="723" y="162" type="line"/>
      <point x="568" y="-10" type="line"/>
      <point x="557" y="-12"/>
      <point x="521" y="-17"/>
    </contour>
    <contour>
      <point x="547" y="1566" type="line" name="av01"/>
      <point x="823" y="1566" type="line" name="mh01"/>
      <point x="776" y="1300" type="line" name="sv02"/>
      <point x="500" y="1300" type="line"/>
    </contour>
    <contour>
      <point x="947" y="1566" type="line" name="av02"/>
      <point x="1223" y="1566" type="line" name="mh02"/>
      <point x="1176" y="1300" type="line" name="sv03"/>
      <point x="900" y="1300" type="line" name="mh03"/>
    </contour>
  </outline>
</glyph>
<glyph name="egrave" format="2">
  <advance width="1300"/>
  <unicode hex="00E8"/>
  <outline>
    <contour>
      <point x="1078" y="158" type="line"/>
      <point x="1032" y="121"/>
      <point x="928" y="58"/>
      <point x="808" y="11"/>
      <point x="668" y="-16"/>
      <point x="586" y="-16" type="qcurve" name="ab01"/>
      <point x="442" y="-16"/>
      <point x="239" y="78"/>
      <point x="119" y="235"/>
      <point x="80" y="439"/>
      <point x="100" y="550" type="qcurve"/>
      <point x="112" y="621"/>
      <point x="164" y="760"/>
      <point x="243" y="886"/>
      <point x="351" y="993"/>
      <point x="488" y="1072"/>
      <point x="654" y="1117"/>
      <point x="752" y="1117" type="qcurve" name="at01"/>
      <point x="872" y="1117"/>
      <point x="1048" y="1046"/>
      <point x="1155" y="918"/>
      <point x="1192" y="740"/>
      <point x="1173" y="632" type="qcurve"/>
      <point x="1168" y="605"/>
      <point x="1146" y="517"/>
      <point x="1132" y="466" type="qcurve" name="sv01"/>
      <point x="395" y="466" type="line" name="av01"/>
      <point x="387" y="412"/>
      <point x="400" y="318"/>
      <point x="456" y="249"/>
      <point x="560" y="210"/>
      <point x="644" y="210" type="qcurve"/>
      <point x="696" y="210"/>
      <point x="777" y="233"/>
      <point x="839" y="264"/>
      <point x="885" y="298"/>
      <point x="901" y="310" type="qcurve"/>
    </contour>
    <contour>
      <point x="886" y="672" type="line"/>
      <point x="894" y="718"/>
      <point x="882" y="800"/>
      <point x="840" y="863"/>
      <point x="769" y="900"/>
      <point x="718" y="900" type="qcurve"/>
      <point x="667" y="900"/>
      <point x="592" y="870"/>
      <point x="537" y="825"/>
      <point x="501" y="775"/>
      <point x="490" y="756" type="qcurve"/>
      <point x="381" y="653" type="line"/>
      <point x="557" y="671" type="line"/>
    </contour>
    <contour>
      <point x="901" y="1200" type="line" name="ah01"/>
      <point x="686" y="1200" type="line" name="sh01"/>
      <point x="458" y="1520" type="line"/>
      <point x="791" y="1500" type="line" name="at02"/>
    </contour>
  </outline>
</glyph>
<glyph name="icircumflex" format="2">
  <advance width="1300"/>
  <unicode hex="00EE"/>
  <outline>
    <contour>
      <point x="515" y="834" type="line"/>
      <point x="606" y="896" type="line"/>
      <point x="510" y="876" type="line"/>
      <point x="247" y="876" type="line"/>
      <point x="247" y="1100" type="line"/>
      <point x="889" y="1100" type="line"/>
      <point x="770" y="423" type="line" smooth="yes"/>
      <point x="750" y="314"/>
      <point x="794" y="236"/>
      <point x="873" y="236" type="curve" smooth="yes"/>
      <point x="961" y="236"/>
      <point x="1026" y="263"/>
      <point x="1107" y="330" type="curve"/>
      <point x="1125" y="98" type="line"/>
      <point x="1084" y="70"/>
      <point x="999" y="-17"/>
      <point x="809" y="-17" type="curve" smooth="yes"/>
      <point x="503" y="-17"/>
      <point x="401" y="189"/>
      <point x="444" y="432" type="curve"/>
    </contour>
    <contour>
      <point x="1094" y="1220" type="line" name="hr01"/>
      <point x="874" y="1220" type="line"/>
      <point x="822" y="1323" type="line"/>
      <point x="815" y="1450" type="line"/>
      <point x="762" y="1323" type="line"/>
      <point x="663" y="1220" type="line"/>
      <point x="424" y="1220" type="line"/>
      <point x="668" y="1500" type="line"/>
      <point x="962" y="1520" type="line"/>
    </contour>
  </outline>
</glyph>
<glyph name="uacute" format="2">
  <advance width="1300"/>
  <unicode hex="00FA"/>
  <outline>
    <contour>
      <point x="891" y="1100" type="line" name="sv01"/>
      <point x="1212" y="1120" type="line" name="at03"/>
      <point x="1014" y="0" type="line" name="sv02"/>
      <point x="697" y="0" type="line" name="ab01"/>
      <point x="715" y="100" type="line"/>
      <point x="616" y="0" type="line"/>
      <point x="587" y="-8"/>
      <point x="526" y="-17"/>
      <point x="492" y="-17" type="qcurve" name="ab02"/>
      <point x="358" y="-17"/>
      <point x="191" y="59"/>
      <point x="105" y="186"/>
      <point x="88" y="350"/>
      <point x="103" y="438" type="qcurve"/>
      <point x="220" y="1100" type="line" name="at01"/>
      <point x="540" y="1120" type="line" name="at02"/>
      <point x="419" y="438" type="line"/>
      <point x="410" y="386"/>
      <point x="413" y="303"/>
      <point x="444" y="244"/>
      <point x="508" y="213"/>
      <point x="559" y="213" type="qcurve"/>
      <point x="592" y="213"/>
      <point x="652" y="233"/>
      <point x="701" y="265"/>
      <point x="740" y="301"/>
      <point x="753" y="318" type="qcurve"/>
    </contour>
    <contour>
      <point x="816" y="1500" type="line" name="at04"/>
      <point x="1157" y="1520" type="line"/>
      <point x="815" y="1200" type="line"/>
      <point x="600" y="1200" type="line" name="av01"/>
    </contour>
  </outline>
</glyph>
<glyph name="udieresis" format="2">
  <advance width="1300"/>
  <unicode hex="00FC"/>
  <outline>
    <contour>
      <point x="891" y="1100" type="line" name="sv01"/>
      <point x="1212" y="1120" type="line" name="at03"/>
      <point x="1014" y="0" type="line" name="sv02"/>
      <point x="697" y="0" type="line" name="ab01"/>
      <point x="715" y="100" type="line"/>
      <point x="616" y="0" type="line"/>
      <point x="587" y="-8"/>
      <point x="526" y="-17"/>
      <point x="492" y="-17" type="qcurve" name="ab02"/>
      <point x="358" y="-17"/>
      <point x="191" y="59"/>
      <point x="105" y="186"/>
      <point x="88" y="350"/>
      <point x="103" y="438" type="qcurve"/>
      <point x="220" y="1100" type="line" name="at01"/>
      <point x="540" y="1120" type="line" name="at02"/>
      <point x="419" y="438" type="line"/>
      <point x="410" y="386"/>
      <point x="413" y="303"/>
      <point x="444" y="244"/>
      <point x="508" y="213"/>
      <point x="559" y="213" type="qcurve"/>
      <point x="592" y="213"/>
      <point x="652" y="233"/>
      <point x="701" y="265"/>
      <point x="740" y="301"/>
      <point x="753" y="318" type="qcurve"/>
    </contour>
    <contour>
      <point x="473" y="1566" type="line" name="av01"/>
      <point x="749" y="1566" type="line" name="mh01"/>
      <point x="702" y="1300" type="line" name="sv03"/>
      <point x="426" y="1300" type="line"/>
    </contour>
    <contour>
      <point x="873" y="1566" type="line" name="av02"/>
      <point x="1149" y="1566" type="line" name="mh02"/>
      <point x="1102" y="1300" type="line" name="sv04"/>
      <point x="826" y="1300" type="line" name="mh03"/>
    </contour>
  </outline>
</glyph>
<glyph name="thorn" format="2">
  <advance width="1300"/>
  <unicode hex="00FE"/>
  <outline>
    <contour>
      <point x="935" y="528" type="qcurve" name="ah01"/>
      <point x="947" y="596"/>
      <point x="946" y="728"/>
      <point x="912" y="833"/>
      <point x="841" y="897"/>
      <point x="782" y="897" type="qcurve"/>
      <point x="727" y="897"/>
      <point x="637" y="842"/>
      <point x="570" y="750"/>
      <point x="525" y="633"/>
      <point x="514" y="571" type="qcurve"/>
      <point x="502" y="502"/>
      <point x="503" y="370"/>
      <point x="537" y="267"/>
      <point x="608" y="203"/>
      <point x="666" y="203" type="qcurve"/>
      <point x="721" y="203"/>
      <point x="811" y="258"/>
      <point x="879" y="350"/>
      <point x="924" y="466"/>
    </contour>
    <contour>
      <point x="697" y="1520" type="line" name="at01"/>
      <point x="641" y="1201" type="line"/>
      <point x="529" y="1030" type="line"/>
      <point x="724" y="1109" type="line"/>
      <point x="749" y="1113"/>
      <point x="798" y="1117"/>
      <point x="824" y="1117" type="qcurve" name="at02"/>
      <point x="944" y="1117"/>
      <point x="1128" y="1032"/>
      <point x="1244" y="881"/>
      <point x="1287" y="674"/>
      <point x="1266" y="553" type="qcurve" name="sh01"/>
      <point x="1245" y="431"/>
      <point x="1131" y="223"/>
      <point x="963" y="70"/>
      <point x="748" y="-17"/>
      <point x="624" y="-17" type="qcurve" name="ab01"/>
      <point x="598" y="-17"/>
      <point x="550" y="-13"/>
      <point x="527" y="-9" type="qcurve"/>
      <point x="361" y="75" type="line"/>
      <point x="412" y="-99" type="line"/>
      <point x="362" y="-380" type="line" name="sv01"/>
      <point x="21" y="-380" type="line" name="av01"/>
      <point x="353" y="1500" type="line"/>
    </contour>
  </outline>
</glyph>
<glyph name="breve" format="2">
  <advance width="1300"/>
  <unicode hex="02D8"/>
  <outline>
    <contour>
      <point x="440" y="1519" type="line" name="sv01"/>
      <point x="436" y="1488"/>
      <point x="445" y="1464" type="qcurve"/>
      <point x="453" y="1444"/>
      <point x="494" y="1410"/>
      <point x="538" y="1410" type="qcurve" name="ih01"/>
      <point x="582" y="1410"/>
      <point x="640" y="1444"/>
      <point x="658" y="1464" type="qcurve"/>
      <point x="679" y="1488"/>
      <point x="691" y="1519" type="qcurve"/>
      <point x="912" y="1519" type="line" name="ih03"/>
      <point x="903" y="1469" type="line"/>
      <point x="899" y="1446"/>
      <point x="848" y="1374"/>
      <point x="753" y="1304"/>
      <point x="613" y="1254"/>
      <point x="520" y="1254" type="qcurve" name="av01"/>
      <point x="427" y="1254"/>
      <point x="306" y="1304"/>
      <point x="238" y="1373"/>
      <point x="215" y="1445"/>
      <point x="219" y="1468" type="qcurve"/>
      <point x="228" y="1519" type="line" name="ih02"/>
    </contour>
  </outline>
</glyph>
<glyph name="ring" format="2">
  <advance width="1300"/>
  <unicode hex="02DA"/>
  <outline>
    <contour>
      <point x="930" y="1682" type="qcurve" name="av01"/>
      <point x="989" y="1682"/>
      <point x="1085" y="1637"/>
      <point x="1148" y="1560"/>
      <point x="1174" y="1456"/>
      <point x="1164" y="1397" type="qcurve" name="sv01"/>
      <point x="1153" y="1338"/>
      <point x="1091" y="1233"/>
      <point x="1001" y="1154"/>
      <point x="890" y="1108"/>
      <point x="831" y="1108" type="qcurve" name="at01"/>
      <point x="772" y="1108"/>
      <point x="675" y="1154"/>
      <point x="611" y="1233"/>
      <point x="583" y="1338"/>
      <point x="594" y="1397" type="qcurve" name="av02"/>
      <point x="604" y="1456"/>
      <point x="668" y="1560"/>
      <point x="759" y="1637"/>
      <point x="871" y="1682"/>
    </contour>
    <contour>
      <point x="863" y="1297" type="qcurve"/>
      <point x="883" y="1297"/>
      <point x="921" y="1313"/>
      <point x="952" y="1340"/>
      <point x="973" y="1376"/>
      <point x="977" y="1396" type="qcurve" name="sv02"/>
      <point x="980" y="1416"/>
      <point x="971" y="1451"/>
      <point x="950" y="1478"/>
      <point x="917" y="1493"/>
      <point x="897" y="1493" type="qcurve"/>
      <point x="877" y="1493"/>
      <point x="839" y="1478"/>
      <point x="808" y="1451"/>
      <point x="786" y="1416"/>
      <point x="783" y="1396" type="qcurve" name="av03"/>
      <point x="779" y="1376"/>
      <point x="788" y="1340"/>
      <point x="810" y="1313"/>
      <point x="843" y="1297"/>
    </contour>
  </outline>
</glyph>
<glyph name="hungarumlaut" format="2">
  <advance width="1300"/>
  <unicode hex="02DD"/>
  <outline>
    <contour>
      <point x="369" y="1500" type="line" name="at05"/>
      <point x="703" y="1520" type="line" name="at03"/>
      <point x="349" y="1117" type="line" name="sv01"/>
      <point x="120" y="1117" type="line" name="at01"/>
    </contour>
    <contour>
      <point x="782" y="1500" type="line" name="sv02"/>
      <point x="1116" y="1520" type="line" name="at04"/>
      <point x="762" y="1117" type="line" name="sv03"/>
      <point x="533" y="1117" type="line" name="at02"/>
    </contour>
  </outline>
</glyph>
<glyph name="Gamma" format="2">
  <advance width="1300"/>
  <unicode hex="0393"/>
  <outline>
    <contour>
      <point x="588" y="1131" type="line" name="hr00"/>
      <point x="388" y="0" type="line" name="sv01"/>
      <point x="46" y="0" type="line" name="ab01"/>
      <point x="270" y="1269" type="line"/>
      <point x="292" y="1500" type="line" name="at01"/>
      <point x="1241" y="1500" type="line" name="sv02"/>
      <point x="1202" y="1282" type="line"/>
      <point x="602" y="1282" type="line"/>
    </contour>
  </outline>
</glyph>
<glyph name="Deltagreek" format="2">
  <advance width="1300"/>
  <unicode hex="0394"/>
  <outline>
    <contour>
      <point x="742" y="1500" type="line" name="hr00"/>
      <point x="1078" y="1520" type="line" name="at01"/>
      <point x="1294" y="0" type="line" name="ih03"/>
      <point x="6" y="0" type="line" name="ih02"/>
    </contour>
    <contour>
      <point x="443" y="228" type="line"/>
      <point x="938" y="228" type="line"/>
      <point x="847" y="1117" type="line" name="ih01"/>
    </contour>
  </outline>
</glyph>
<glyph name="Eta" format="2">
  <advance width="1300"/>
  <unicode hex="0397"/>
  <outline>
    <contour>
      <point x="601" y="0" type="line" name="hr00"/>
      <point x="723" y="688" type="line" name="sv01"/>
      <point x="407" y="688" type="line" name="av01"/>
      <point x="285" y="0" type="line"/>
      <point x="-61" y="0" type="line" name="ab01"/>
      <point x="161" y="1263" type="line"/>
      <point x="161" y="1500" type="line" name="at01"/>
      <point x="554" y="1520" type="line" name="at02"/>
      <point x="447" y="916" type="line"/>
      <point x="763" y="916" type="line"/>
      <point x="866" y="1500" type="line" name="sv02"/>
      <point x="1216" y="1520" type="line" name="at03"/>
      <point x="947" y="0" type="line" name="sv03"/>
    </contour>
  </outline>
</glyph>
<glyph name="Iota" format="2">
  <advance width="1300"/>
  <unicode hex="0399"/>
  <outline>
    <contour>
      <point x="353" y="1500" type="line" name="at01"/>
      <point x="1231" y="1500" type="line" name="sv01"/>
      <point x="1191" y="1272" type="line"/>
      <point x="918" y="1272" type="line"/>
      <point x="733" y="228" type="line"/>
      <point x="1034" y="228" type="line"/>
      <point x="959" y="0" type="line" name="sv02"/>
      <point x="81" y="0" type="line" name="ab01"/>
      <point x="121" y="228" type="line"/>
      <point x="399" y="228" type="line"/>
      <point x="584" y="1272" type="line"/>
      <point x="278" y="1272" type="line"/>
    </contour>
  </outline>
</glyph>
<glyph name="Kappa" format="2">
  <advance width="1300"/>
  <unicode hex="039A"/>
  <outline>
    <contour>
      <point x="7" y="0" type="line" name="ab01"/>
      <point x="229" y="1263" type="line"/>
      <point x="229" y="1500" type="line" name="at01"/>
      <point x="626" y="1520" type="line" name="at02"/>
      <point x="540" y="1035" type="line"/>
      <point x="923" y="1500" type="line" name="sv01"/>
      <point x="1291" y="1500" type="line"/>
      <point x="776" y="900" type="line"/>
      <point x="526" y="800" type="line"/>
      <point x="734" y="716" type="line"/>
      <point x="1137" y="0" type="line" name="sv02"/>
      <point x="757" y="0" type="line"/>
      <point x="453" y="540" type="line"/>
      <point x="357" y="0" type="line"/>
    </contour>
  </outline>
</glyph>
<glyph name="Mu" format="2">
  <advance width="1300"/>
  <unicode hex="039C"/>
  <outline>
    <contour>
      <point x="717" y="0" type="line" name="hr00"/>
      <point x="797" y="449" type="line"/>
      <point x="1036" y="1200" type="line"/>
      <point x="1026" y="1200" type="line"/>
      <point x="801" y="700" type="line"/>
      <point x="693" y="475" type="line"/>
      <point x="502" y="475" type="line"/>
      <point x="477" y="700" type="line" name="mh01"/>
      <point x="426" y="1200" type="line" name="mv01"/>
      <point x="416" y="1200" type="line"/>
      <point x="396" y="449" type="line" name="mh02"/>
      <point x="316" y="0" type="line"/>
      <point x="5" y="0" type="line" name="ab01"/>
      <point x="227" y="1263" type="line"/>
      <point x="227" y="1500" type="line" name="at01"/>
      <point x="552" y="1520" type="line" name="at02"/>
      <point x="645" y="1079" type="line"/>
      <point x="642" y="800" type="line"/>
      <point x="725" y="1082" type="line"/>
      <point x="969" y="1500" type="line" name="sv01"/>
      <point x="1299" y="1520" type="line" name="at03"/>
      <point x="1030" y="0" type="line" name="sv02"/>
    </contour>
  </outline>
</glyph>
<glyph name="Nu" format="2">
  <advance width="1300"/>
  <unicode hex="039D"/>
  <outline>
    <contour>
      <point x="739" y="0" type="line" name="hr00"/>
      <point x="443" y="950" type="line"/>
      <point x="433" y="950" type="line"/>
      <point x="442" y="649" type="line"/>
      <point x="327" y="0" type="line"/>
      <point x="5" y="0" type="line" name="ab01"/>
      <point x="227" y="1263" type="line"/>
      <point x="227" y="1500" type="line" name="at01"/>
      <point x="566" y="1520" type="line" name="at02"/>
      <point x="861" y="600" type="line"/>
      <point x="871" y="600" type="line"/>
      <point x="857" y="852" type="line"/>
      <point x="971" y="1500" type="line" name="sv01"/>
      <point x="1297" y="1520" type="line" name="at03"/>
      <point x="1028" y="0" type="line" name="sv02"/>
    </contour>
  </outline>
</glyph>
<glyph name="Xi" format="2">
  <advance width="1300"/>
  <unicode hex="039E"/>
  <outline>
    <contour>
      <point x="264" y="916" type="line" name="av01"/>
      <point x="1096" y="916" type="line" name="sv01"/>
      <point x="1053" y="675" type="line" name="sv02"/>
      <point x="221" y="675" type="line"/>
    </contour>
    <contour>
      <point x="51" y="241" type="line"/>
      <point x="1071" y="241" type="line" name="sv04"/>
      <point x="1028" y="0" type="line" name="sv03"/>
      <point x="8" y="0" type="line" name="ab01"/>
    </contour>
    <contour>
      <point x="272" y="1500" type="line" name="at01"/>
      <point x="1293" y="1500" type="line" name="sv05"/>
      <point x="1250" y="1259" type="line" name="sv06"/>
      <point x="229" y="1259" type="line"/>
    </contour>
  </outline>
</glyph>
<glyph name="Sigma" format="2">
  <advance width="1300"/>
  <unicode hex="03A3"/>
  <outline>
    <contour>
      <point x="894" y="699" type="line" name="hr00"/>
      <point x="494" y="300" type="line"/>
      <point x="347" y="200" type="line"/>
      <point x="510" y="217" type="line"/>
      <point x="1066" y="217" type="line"/>
      <point x="1027" y="0" type="line" name="sv01"/>
      <point x="3" y="0" type="line" name="ab01"/>
      <point x="63" y="216" type="line"/>
      <point x="553" y="690" type="line"/>
      <point x="754" y="750" type="line" name="iv01"/>
      <point x="574" y="810" type="line"/>
      <point x="252" y="1284" type="line"/>
      <point x="267" y="1500" type="line" name="at01"/>
      <point x="1292" y="1500" type="line" name="sv02"/>
      <point x="1253" y="1283" type="line"/>
      <point x="697" y="1283" type="line"/>
      <point x="540" y="1300" type="line"/>
      <point x="653" y="1200" type="line"/>
      <point x="911" y="801" type="line"/>
    </contour>
  </outline>
</glyph>
<glyph name="Tau" format="2">
  <advance width="1300"/>
  <unicode hex="03A4"/>
  <outline>
    <contour>
      <point x="246" y="0" type="line" name="hr00"/>
      <point x="471" y="1272" type="line"/>
      <point x="68" y="1272" type="line"/>
      <point x="108" y="1500" type="line" name="at01"/>
      <point x="1242" y="1500" type="line" name="sv01"/>
      <point x="1202" y="1272" type="line"/>
      <point x="804" y="1272" type="line"/>
      <point x="579" y="0" type="line" name="ab01"/>
    </contour>
  </outline>
</glyph>
<glyph name="Upsilon" format="2">
  <advance width="1300"/>
  <unicode hex="03A5"/>
  <outline>
    <contour>
      <point x="547" y="1143" type="line" name="hr00"/>
      <point x="589" y="773" type="line"/>
      <point x="712" y="1143" type="line"/>
      <point x="957" y="1500" type="line"/>
      <point x="1292" y="1500" type="line" name="sv01"/>
      <point x="709" y="650" type="line"/>
      <point x="594" y="0" type="line" name="sv02"/>
      <point x="243" y="0" type="line" name="ab01"/>
      <point x="358" y="650" type="line"/>
      <point x="79" y="1500" type="line" name="at01"/>
      <point x="422" y="1520" type="line" name="at02"/>
    </contour>
  </outline>
</glyph>
<glyph name="Phi" format="2">
  <advance width="1300"/>
  <unicode hex="03A6"/>
  <outline>
    <contour>
      <point x="381" y="204" type="line" name="av02"/>
      <point x="361" y="209"/>
      <point x="325" y="218"/>
      <point x="307" y="224" type="qcurve"/>
      <point x="308" y="224" type="line"/>
      <point x="131" y="281"/>
      <point x="-13" y="542"/>
      <point x="23" y="750" type="qcurve" name="av01"/>
      <point x="59" y="956"/>
      <point x="296" y="1220"/>
      <point x="493" y="1276" type="qcurve"/>
      <point x="492" y="1276" type="line"/>
      <point x="512" y="1282"/>
      <point x="552" y="1291"/>
      <point x="574" y="1296" type="qcurve" name="av03"/>
      <point x="610" y="1500" type="line"/>
      <point x="955" y="1520" type="line" name="at01"/>
      <point x="915" y="1296" type="line" name="sv01"/>
      <point x="935" y="1291"/>
      <point x="973" y="1282"/>
      <point x="990" y="1276" type="qcurve"/>
      <point x="989" y="1276" type="line"/>
      <point x="1166" y="1220"/>
      <point x="1312" y="956"/>
      <point x="1276" y="750" type="qcurve" name="sv04"/>
      <point x="1239" y="542"/>
      <point x="1001" y="281"/>
      <point x="805" y="224" type="qcurve"/>
      <point x="806" y="224" type="line"/>
      <point x="786" y="218"/>
      <point x="744" y="209"/>
      <point x="722" y="204" type="qcurve" name="sv05"/>
      <point x="686" y="0" type="line" name="sv06"/>
      <point x="345" y="0" type="line" name="ab01"/>
    </contour>
    <contour>
      <point x="765" y="444" type="line"/>
      <point x="801" y="462"/>
      <point x="868" y="517"/>
      <point x="923" y="594"/>
      <point x="964" y="691"/>
      <point x="975" y="750" type="qcurve" name="sv03"/>
      <point x="985" y="810"/>
      <point x="979" y="907"/>
      <point x="950" y="982"/>
      <point x="903" y="1037"/>
      <point x="873" y="1055" type="qcurve"/>
    </contour>
    <contour>
      <point x="532" y="1055" type="line"/>
      <point x="457" y="1020"/>
      <point x="345" y="870"/>
      <point x="324" y="750" type="qcurve" name="sv02"/>
      <point x="303" y="630"/>
      <point x="362" y="479"/>
      <point x="424" y="445" type="qcurve"/>
    </contour>
  </outline>
</glyph>
<glyph name="gamma" format="2">
  <advance width="1300"/>
  <unicode hex="03B3"/>
  <outline>
    <contour>
      <point x="101" y="1116" type="line" name="ih02"/>
      <point x="158" y="1116"/>
      <point x="277" y="1108"/>
      <point x="381" y="1071"/>
      <point x="457" y="995"/>
      <point x="470" y="927" type="qcurve"/>
      <point x="525" y="641" type="line"/>
      <point x="530" y="220" type="line" name="ih01"/>
      <point x="684" y="643" type="line"/>
      <point x="933" y="1100" type="line"/>
      <point x="1246" y="1120" type="line" name="ih03"/>
      <point x="656" y="21" type="line"/>
      <point x="564" y="-500" type="line" name="sv01"/>
      <point x="236" y="-500" type="line" name="ab01"/>
      <point x="323" y="-7" type="line"/>
      <point x="166" y="834" type="line"/>
      <point x="160" y="864"/>
      <point x="127" y="899"/>
      <point x="110" y="907" type="qcurve"/>
      <point x="90" y="917"/>
      <point x="67" y="920" type="qcurve"/>
    </contour>
  </outline>
</glyph>
<glyph name="iota" format="2">
  <advance width="1300"/>
  <unicode hex="03B9"/>
  <outline>
    <contour>
      <point x="489" y="874" type="line" name="hr00"/>
      <point x="489" y="1100" type="line"/>
      <point x="860" y="1120" type="line" name="at01"/>
      <point x="733" y="400" type="line"/>
      <point x="726" y="362"/>
      <point x="715" y="289"/>
      <point x="714" y="231"/>
      <point x="727" y="195"/>
      <point x="745" y="195" type="qcurve"/>
      <point x="768" y="195"/>
      <point x="805" y="202"/>
      <point x="822" y="209" type="qcurve"/>
      <point x="887" y="35" type="line"/>
      <point x="872" y="26"/>
      <point x="824" y="7"/>
      <point x="769" y="-8"/>
      <point x="712" y="-17"/>
      <point x="687" y="-17" type="qcurve" name="ab01"/>
      <point x="567" y="-17"/>
      <point x="438" y="49"/>
      <point x="385" y="165"/>
      <point x="392" y="322"/>
      <point x="408" y="413" type="qcurve"/>
    </contour>
  </outline>
</glyph>
<glyph name="kappa" format="2">
  <advance width="1300"/>
  <unicode hex="03BA"/>
  <outline>
    <contour>
      <point x="133" y="0" type="line" name="ab01"/>
      <point x="290" y="890" type="line"/>
      <point x="290" y="1100" type="line" name="at01"/>
      <point x="627" y="1120" type="line" name="at02"/>
      <point x="566" y="774" type="line"/>
      <point x="864" y="1100" type="line" name="sv01"/>
      <point x="1179" y="1120" type="line" name="at03"/>
      <point x="739" y="670" type="line"/>
      <point x="552" y="600" type="line" name="iv01"/>
      <point x="714" y="530" type="line"/>
      <point x="1028" y="0" type="line" name="sv02"/>
      <point x="719" y="0" type="line" name="ab02"/>
      <point x="501" y="405" type="line"/>
      <point x="430" y="0" type="line" name="sv03"/>
    </contour>
  </outline>
</glyph>
<glyph name="uni03BC" format="2">
  <advance width="1300"/>
  <unicode hex="03BC"/>
  <outline>
    <contour>
      <point x="740" y="27" type="line" name="hr00"/>
      <point x="705" y="8"/>
      <point x="624" y="-17"/>
      <point x="577" y="-17" type="qcurve" name="ab01"/>
      <point x="557" y="-17"/>
      <point x="501" y="-7"/>
      <point x="445" y="10"/>
      <point x="398" y="30"/>
      <point x="388" y="40" type="qcurve"/>
      <point x="417" y="-166" type="line"/>
      <point x="358" y="-500" type="line" name="sv01"/>
      <point x="48" y="-500" type="line" name="ab03"/>
      <point x="329" y="1100" type="line" name="ih02"/>
      <point x="643" y="1120" type="line" name="at01"/>
      <point x="507" y="345" type="line"/>
      <point x="500" y="307"/>
      <point x="515" y="247"/>
      <point x="548" y="205"/>
      <point x="595" y="183"/>
      <point x="622" y="183" type="qcurve" name="ih01"/>
      <point x="665" y="183"/>
      <point x="745" y="223"/>
      <point x="779" y="251" type="qcurve"/>
      <point x="929" y="1100" type="line" name="sv02"/>
      <point x="1243" y="1120" type="line" name="ih03"/>
      <point x="1046" y="0" type="line" name="sv03"/>
      <point x="735" y="0" type="line" name="ab02"/>
    </contour>
  </outline>
</glyph>
<glyph name="sigma" format="2">
  <advance width="1300"/>
  <unicode hex="03C3"/>
  <outline>
    <contour>
      <point x="46" y="551" type="qcurve" name="av01"/>
      <point x="65" y="663"/>
      <point x="164" y="868"/>
      <point x="323" y="1024"/>
      <point x="544" y="1117"/>
      <point x="685" y="1117" type="qcurve" name="at01"/>
      <point x="1269" y="1117" type="line" name="sv01"/>
      <point x="1234" y="917" type="line" name="sv02"/>
      <point x="1111" y="917" type="line"/>
      <point x="973" y="939" type="line"/>
      <point x="1125" y="800" type="line"/>
      <point x="1132" y="766"/>
      <point x="1140" y="709"/>
      <point x="1140" y="651"/>
      <point x="1134" y="589"/>
      <point x="1127" y="551" type="qcurve" name="sv05"/>
      <point x="1106" y="435"/>
      <point x="1007" y="228"/>
      <point x="848" y="73"/>
      <point x="628" y="-17"/>
      <point x="486" y="-17" type="qcurve" name="ab01"/>
      <point x="345" y="-17"/>
      <point x="157" y="77"/>
      <point x="53" y="234"/>
      <point x="26" y="440"/>
    </contour>
    <contour>
      <point x="353" y="551" type="qcurve" name="sv03"/>
      <point x="341" y="486"/>
      <point x="347" y="355"/>
      <point x="386" y="249"/>
      <point x="462" y="183"/>
      <point x="521" y="183" type="qcurve"/>
      <point x="581" y="183"/>
      <point x="680" y="249"/>
      <point x="756" y="355"/>
      <point x="807" y="486"/>
      <point x="819" y="551" type="qcurve" name="sv04"/>
      <point x="831" y="617"/>
      <point x="825" y="748"/>
      <point x="786" y="852"/>
      <point x="710" y="917"/>
      <point x="650" y="917" type="qcurve"/>
      <point x="591" y="917"/>
      <point x="492" y="851"/>
      <point x="415" y="746"/>
      <point x="364" y="615"/>
    </contour>
  </outline>
</glyph>
<glyph name="tau" format="2">
  <advance width="1300"/>
  <unicode hex="03C4"/>
  <outline>
    <contour>
      <point x="804" y="900" type="line" name="sv03"/>
      <point x="696" y="284" type="line"/>
      <point x="690" y="250"/>
      <point x="690" y="190"/>
      <point x="706" y="125"/>
      <point x="740" y="50"/>
      <point x="768" y="0" type="qcurve" name="sv04"/>
      <point x="453" y="0" type="line" name="ab01"/>
      <point x="422" y="25"/>
      <point x="388" y="90"/>
      <point x="376" y="170"/>
      <point x="383" y="264"/>
      <point x="393" y="320" type="qcurve"/>
      <point x="495" y="900" type="line"/>
      <point x="160" y="900" type="line" name="sv05"/>
      <point x="222" y="1100" type="line" name="at01"/>
      <point x="1150" y="1100" type="line" name="sv01"/>
      <point x="1088" y="900" type="line" name="sv02"/>
    </contour>
  </outline>
</glyph>
<glyph name="upsilon" format="2">
  <advance width="1300"/>
  <unicode hex="03C5"/>
  <outline>
    <contour>
      <point x="649" y="500" type="line" name="sh01"/>
      <point x="635" y="425"/>
      <point x="620" y="311"/>
      <point x="628" y="233"/>
      <point x="662" y="194"/>
      <point x="698" y="194" type="qcurve"/>
      <point x="733" y="194"/>
      <point x="780" y="228"/>
      <point x="812" y="286"/>
      <point x="831" y="364"/>
      <point x="839" y="409" type="qcurve" name="ah01"/>
      <point x="893" y="719" type="line" name="ah04"/>
      <point x="904" y="783"/>
      <point x="881" y="867"/>
      <point x="836" y="917"/>
      <point x="780" y="938"/>
      <point x="758" y="938" type="qcurve"/>
      <point x="789" y="1117" type="line" name="at02"/>
      <point x="898" y="1117"/>
      <point x="1073" y="1066"/>
      <point x="1189" y="969"/>
      <point x="1239" y="831"/>
      <point x="1224" y="744" type="qcurve" name="sh02"/>
      <point x="1163" y="401" type="line" name="sh03"/>
      <point x="1155" y="357"/>
      <point x="1130" y="260"/>
      <point x="1084" y="168"/>
      <point x="1013" y="84"/>
      <point x="907" y="20"/>
      <point x="760" y="-17"/>
      <point x="661" y="-17" type="qcurve" name="ab01"/>
      <point x="561" y="-17"/>
      <point x="427" y="23"/>
      <point x="344" y="91"/>
      <point x="304" y="180"/>
      <point x="293" y="278"/>
      <point x="303" y="379"/>
      <point x="311" y="424" type="qcurve" name="ah02"/>
      <point x="382" y="824" type="line" name="ah03"/>
      <point x="389" y="862"/>
      <point x="381" y="907"/>
      <point x="366" y="907" type="qcurve"/>
      <point x="348" y="907"/>
      <point x="310" y="843"/>
      <point x="300" y="787" type="qcurve" name="sv01"/>
      <point x="85" y="787" type="line" name="av01"/>
      <point x="96" y="848"/>
      <point x="155" y="967"/>
      <point x="245" y="1060"/>
      <point x="363" y="1117"/>
      <point x="433" y="1117" type="qcurve" name="at01"/>
      <point x="505" y="1117"/>
      <point x="617" y="1074"/>
      <point x="689" y="997"/>
      <point x="717" y="889"/>
      <point x="706" y="824" type="qcurve" name="sh04"/>
    </contour>
  </outline>
</glyph>
<glyph name="Upsilon1" format="2">
  <advance width="1300"/>
  <unicode hex="03D2"/>
  <outline>
    <contour>
      <point x="1188" y="1336" type="line" name="hr00"/>
      <point x="1174" y="1334"/>
      <point x="1156" y="1324" type="qcurve"/>
      <point x="1141" y="1315"/>
      <point x="1102" y="1279"/>
      <point x="1079" y="1245" type="qcurve"/>
      <point x="690" y="662" type="line"/>
      <point x="574" y="0" type="line" name="sv01"/>
      <point x="240" y="0" type="line" name="ab01"/>
      <point x="356" y="662" type="line"/>
      <point x="172" y="1245" type="line"/>
      <point x="164" y="1271"/>
      <point x="127" y="1300"/>
      <point x="107" y="1308" type="qcurve"/>
      <point x="84" y="1317"/>
      <point x="57" y="1320" type="qcurve"/>
      <point x="91" y="1517" type="line" name="ih02"/>
      <point x="155" y="1517"/>
      <point x="266" y="1507"/>
      <point x="358" y="1469"/>
      <point x="429" y="1394"/>
      <point x="454" y="1328" type="qcurve"/>
      <point x="521" y="1157" type="line" name="av01"/>
      <point x="548" y="799" type="line" name="ih01"/>
      <point x="702" y="1157" type="line" name="sv02"/>
      <point x="828" y="1328" type="line"/>
      <point x="876" y="1394"/>
      <point x="973" y="1469"/>
      <point x="1078" y="1507"/>
      <point x="1192" y="1517"/>
      <point x="1257" y="1517" type="qcurve" name="ih03"/>
    </contour>
  </outline>
</glyph>
<glyph name="hyphentwo" format="2">
  <advance width="1300"/>
  <unicode hex="2010"/>
  <outline>
    <contour>
      <point x="366" y="624" type="line" name="av01"/>
      <point x="993" y="624" type="line" name="sv01"/>
      <point x="954" y="400" type="line" name="sv02"/>
      <point x="327" y="400" type="line"/>
    </contour>
  </outline>
</glyph>
<glyph name="doubleverticalline" format="2">
  <advance width="1300"/>
  <unicode hex="2016"/>
  <outline>
    <contour>
      <point x="721" y="1500" type="line" name="sv01"/>
      <point x="456" y="0" type="line" name="sv02"/>
      <point x="237" y="0" type="line" name="ab01"/>
      <point x="502" y="1500" type="line" name="at01"/>
    </contour>
    <contour>
      <point x="1021" y="1500" type="line" name="sv03"/>
      <point x="756" y="0" type="line" name="sv04"/>
      <point x="537" y="0" type="line"/>
      <point x="802" y="1500" type="line"/>
    </contour>
  </outline>
</glyph>
<glyph name="dagger" format="2">
  <advance width="1300"/>
  <unicode hex="2020"/>
  <outline>
    <contour>
      <point x="288" y="1117" type="line" name="at02"/>
      <point x="544" y="1117" type="line"/>
      <point x="611" y="1500" type="line"/>
      <point x="897" y="1520" type="line" name="at01"/>
      <point x="826" y="1117" type="line"/>
      <point x="1116" y="1117" type="line" name="sv01"/>
      <point x="1050" y="900" type="line"/>
      <point x="788" y="900" type="line"/>
      <point x="558" y="-401" type="line" name="sv02"/>
      <point x="276" y="-401" type="line" name="av01"/>
      <point x="506" y="900" type="line"/>
      <point x="250" y="900" type="line"/>
    </contour>
  </outline>
</glyph>
<glyph name="daggerdbl" format="2">
  <advance width="1300"/>
  <unicode hex="2021"/>
  <outline>
    <contour>
      <point x="361" y="82" type="line" name="hr00"/>
      <point x="105" y="82" type="line"/>
      <point x="144" y="300" type="line" name="av01"/>
      <point x="400" y="300" type="line"/>
      <point x="505" y="900" type="line"/>
      <point x="249" y="900" type="line"/>
      <point x="288" y="1118" type="line" name="at01"/>
      <point x="544" y="1118" type="line"/>
      <point x="611" y="1500" type="line"/>
      <point x="897" y="1520" type="line" name="at02"/>
      <point x="826" y="1118" type="line"/>
      <point x="1115" y="1118" type="line" name="sv01"/>
      <point x="1048" y="900" type="line"/>
      <point x="787" y="900" type="line"/>
      <point x="682" y="300" type="line"/>
      <point x="971" y="300" type="line" name="sv02"/>
      <point x="904" y="82" type="line"/>
      <point x="643" y="82" type="line"/>
      <point x="558" y="-400" type="line" name="sv03"/>
      <point x="276" y="-400" type="line" name="av02"/>
    </contour>
  </outline>
</glyph>
<glyph name="prime" format="2">
  <advance width="1300"/>
  <unicode hex="2032"/>
  <outline>
    <contour>
      <point x="484" y="1230" type="line" name="sv01"/>
      <point x="263" y="885" type="line" name="sv02"/>
      <point x="110" y="885" type="line" name="av01"/>
      <point x="235" y="1232" type="line" name="av02"/>
      <point x="285" y="1520" type="line" name="at01"/>
      <point x="532" y="1500" type="line"/>
    </contour>
  </outline>
</glyph>
<glyph name="doubleprime" format="2">
  <advance width="1300"/>
  <unicode hex="2033"/>
  <outline>
    <contour>
      <point x="484" y="1230" type="line" name="sv01"/>
      <point x="263" y="885" type="line" name="sv02"/>
      <point x="110" y="885" type="line" name="av01"/>
      <point x="235" y="1232" type="line" name="av02"/>
      <point x="285" y="1520" type="line" name="at01"/>
      <point x="532" y="1500" type="line"/>
    </contour>
    <contour>
      <point x="834" y="1230" type="line" name="sv03"/>
      <point x="613" y="885" type="line" name="sv04"/>
      <point x="460" y="885" type="line" name="av03"/>
      <point x="585" y="1232" type="line" name="av04"/>
      <point x="635" y="1520" type="line" name="at02"/>
      <point x="882" y="1500" type="line"/>
    </contour>
  </outline>
</glyph>
<glyph name="tripleprime" format="2">
  <advance width="1300"/>
  <unicode hex="2034"/>
  <outline>
    <contour>
      <point x="484" y="1230" type="line" name="sv01"/>
      <point x="263" y="885" type="line" name="sv02"/>
      <point x="110" y="885" type="line" name="av01"/>
      <point x="235" y="1232" type="line" name="av02"/>
      <point x="285" y="1520" type="line" name="at01"/>
      <point x="532" y="1500" type="line"/>
    </contour>
    <contour>
      <point x="834" y="1230" type="line" name="sv03"/>
      <point x="613" y="885" type="line" name="sv04"/>
      <point x="460" y="885" type="line" name="av03"/>
      <point x="585" y="1232" type="line" name="av04"/>
      <point x="635" y="1520" type="line" name="at02"/>
      <point x="882" y="1500" type="line"/>
    </contour>
    <contour>
      <point x="1184" y="1230" type="line" name="sv05"/>
      <point x="963" y="885" type="line" name="sv06"/>
      <point x="810" y="885" type="line" name="av05"/>
      <point x="935" y="1232" type="line" name="av06"/>
      <point x="985" y="1520" type="line" name="at03"/>
      <point x="1232" y="1500" type="line"/>
    </contour>
  </outline>
</glyph>
<glyph name="guilsinglleft" format="2">
  <advance width="1300"/>
  <unicode hex="2039"/>
  <outline>
    <contour>
      <point x="960" y="1106" type="line" name="at01"/>
      <point x="1009" y="880" type="line"/>
      <point x="626" y="583" type="line"/>
      <point x="544" y="550" type="line" name="iv01"/>
      <point x="613" y="517" type="line"/>
      <point x="896" y="224" type="line"/>
      <point x="760" y="-13" type="line" name="ab01"/>
      <point x="291" y="476" type="line"/>
      <point x="316" y="620" type="line"/>
    </contour>
  </outline>
</glyph>
<glyph name="superscriptplussign" format="2">
  <advance width="1300"/>
  <unicode hex="207A"/>
  <outline>
    <contour>
      <point x="202" y="1070" type="line" name="hr00"/>
      <point x="382" y="1070" type="line"/>
      <point x="419" y="1278" type="line"/>
      <point x="529" y="1278" type="line"/>
      <point x="492" y="1070" type="line"/>
      <point x="672" y="1070" type="line"/>
      <point x="654" y="970" type="line"/>
      <point x="474" y="970" type="line"/>
      <point x="439" y="770" type="line"/>
      <point x="329" y="770" type="line"/>
      <point x="364" y="970" type="line"/>
      <point x="184" y="970" type="line"/>
    </contour>
  </outline>
</glyph>
<glyph name="superscriptminus" format="2">
  <advance width="1300"/>
  <unicode hex="207B"/>
  <outline>
    <contour>
      <point x="209" y="1070" type="line" name="hr00"/>
      <point x="659" y="1070" type="line"/>
      <point x="640" y="958" type="line"/>
      <point x="190" y="958" type="line"/>
    </contour>
  </outline>
</glyph>
<glyph name="superscriptequalssign" format="2">
  <advance width="1300"/>
  <unicode hex="207C"/>
  <outline>
    <contour>
      <point x="252" y="1120" type="line" name="hr00"/>
      <point x="652" y="1120" type="line"/>
      <point x="632" y="1010" type="line"/>
      <point x="232" y="1010" type="line"/>
    </contour>
    <contour>
      <point x="217" y="920" type="line"/>
      <point x="617" y="920" type="line"/>
      <point x="597" y="810" type="line"/>
      <point x="197" y="810" type="line"/>
    </contour>
  </outline>
</glyph>
<glyph name="superscriptrightparenthesis" format="2">
  <advance width="1300"/>
  <unicode hex="207E"/>
  <outline>
    <contour>
      <point x="412" y="736" type="line" name="hr00"/>
      <point x="403" y="689"/>
      <point x="379" y="606"/>
      <point x="332" y="543"/>
      <point x="258" y="507"/>
      <point x="201" y="507" type="qcurve"/>
      <point x="189" y="507"/>
      <point x="161" y="510"/>
      <point x="134" y="517"/>
      <point x="109" y="528"/>
      <point x="100" y="534" type="qcurve"/>
      <point x="160" y="594" type="line"/>
      <point x="167" y="594"/>
      <point x="190" y="598"/>
      <point x="215" y="617"/>
      <point x="237" y="657"/>
      <point x="244" y="694" type="qcurve"/>
      <point x="356" y="1330" type="line"/>
      <point x="362" y="1366"/>
      <point x="354" y="1407"/>
      <point x="336" y="1427"/>
      <point x="313" y="1432"/>
      <point x="304" y="1432" type="qcurve"/>
      <point x="269" y="1489" type="line"/>
      <point x="280" y="1496"/>
      <point x="308" y="1506"/>
      <point x="338" y="1513"/>
      <point x="367" y="1517"/>
      <point x="380" y="1517" type="qcurve"/>
      <point x="437" y="1517"/>
      <point x="498" y="1483"/>
      <point x="523" y="1423"/>
      <point x="519" y="1342"/>
      <point x="511" y="1296" type="qcurve"/>
    </contour>
  </outline>
</glyph>
<glyph name="subscriptone" format="2">
  <advance width="1300"/>
  <unicode hex="2081"/>
  <outline>
    <contour>
      <point x="420" y="-60" type="line" name="hr00"/>
      <point x="489" y="121" type="line"/>
      <point x="351" y="-14" type="line"/>
      <point x="303" y="-51" type="line"/>
      <point x="241" y="41" type="line"/>
      <point x="520" y="260" type="line"/>
      <point x="640" y="250" type="line"/>
      <point x="525" y="-400" type="line"/>
      <point x="647" y="-400" type="line"/>
      <point x="629" y="-500" type="line"/>
      <point x="220" y="-500" type="line"/>
      <point x="238" y="-400" type="line"/>
      <point x="360" y="-400" type="line"/>
    </contour>
  </outline>
</glyph>
<glyph name="subscriptthree" format="2">
  <advance width="1300"/>
  <unicode hex="2083"/>
  <outline>
    <contour>
      <point x="279" y="-31" type="line" name="hr00"/>
      <point x="296" y="-21"/>
      <point x="342" y="9"/>
      <point x="395" y="45"/>
      <point x="450" y="85"/>
      <point x="502" y="126"/>
      <point x="546" y="168"/>
      <point x="562" y="187" type="qcurve"/>
      <point x="425" y="150" type="line"/>
      <point x="259" y="150" type="line"/>
      <point x="288" y="250" type="line"/>
      <point x="709" y="250" type="line"/>
      <point x="693" y="163" type="line"/>
      <point x="671" y="124"/>
      <point x="601" y="58"/>
      <point x="560" y="26" type="qcurve"/>
      <point x="475" y="-16" type="line"/>
      <point x="527" y="-16"/>
      <point x="609" y="-43"/>
      <point x="661" y="-94"/>
      <point x="681" y="-168"/>
      <point x="673" y="-214" type="qcurve"/>
      <point x="664" y="-263"/>
      <point x="609" y="-344"/>
      <point x="528" y="-408"/>
      <point x="425" y="-455"/>
      <point x="312" y="-485"/>
      <point x="195" y="-500"/>
      <point x="140" y="-500" type="qcurve"/>
      <point x="158" y="-400" type="line"/>
      <point x="217" y="-398"/>
      <point x="334" y="-371"/>
      <point x="430" y="-325"/>
      <point x="495" y="-259"/>
      <point x="502" y="-219" type="qcurve"/>
      <point x="507" y="-190"/>
      <point x="490" y="-150"/>
      <point x="452" y="-126"/>
      <point x="398" y="-115"/>
      <point x="367" y="-115" type="qcurve"/>
      <point x="360" y="-115"/>
      <point x="331" y="-117"/>
      <point x="299" y="-118"/>
      <point x="271" y="-120"/>
      <point x="263" y="-120" type="qcurve"/>
    </contour>
  </outline>
</glyph>
<glyph name="subscriptminus" format="2">
  <advance width="1300"/>
  <unicode hex="208B"/>
  <outline>
    <contour>
      <point x="209" y="-150" type="line" name="hr00"/>
      <point x="659" y="-150" type="line"/>
      <point x="640" y="-262" type="line"/>
      <point x="190" y="-262" type="line"/>
    </contour>
  </outline>
</glyph>
<glyph name="fahrenheit" format="2">
  <advance width="2600"/>
  <unicode hex="2109"/>
  <outline>
    <contour>
      <point x="1083" y="0" type="line" name="sv01"/>
      <point x="732" y="0" type="line" name="ab01"/>
      <point x="955" y="1263" type="line"/>
      <point x="955" y="1500" type="line" name="at01"/>
      <point x="1964" y="1500" type="line" name="sv02"/>
      <point x="1897" y="1272" type="line" name="mv01"/>
      <point x="1293" y="1272" type="line"/>
      <point x="1283" y="1134" type="line"/>
      <point x="1245" y="916" type="line" name="av01"/>
      <point x="1758" y="916" type="line" name="sv03"/>
      <point x="1720" y="703" type="line"/>
      <point x="1207" y="703" type="line"/>
    </contour>
    <contour>
      <point x="447" y="1517" type="qcurve" name="at02"/>
      <point x="508" y="1517"/>
      <point x="609" y="1475"/>
      <point x="676" y="1401"/>
      <point x="706" y="1303"/>
      <point x="696" y="1247" type="qcurve"/>
      <point x="686" y="1191"/>
      <point x="622" y="1093"/>
      <point x="529" y="1020"/>
      <point x="413" y="977"/>
      <point x="352" y="977" type="qcurve" name="av02"/>
      <point x="290" y="977"/>
      <point x="190" y="1020"/>
      <point x="123" y="1093"/>
      <point x="94" y="1191"/>
      <point x="104" y="1247" type="qcurve"/>
      <point x="114" y="1303"/>
      <point x="177" y="1401"/>
      <point x="270" y="1475"/>
      <point x="385" y="1517"/>
    </contour>
    <contour>
      <point x="382" y="1145" type="qcurve" name="av03"/>
      <point x="405" y="1145"/>
      <point x="449" y="1161"/>
      <point x="484" y="1189"/>
      <point x="508" y="1226"/>
      <point x="512" y="1247" type="qcurve"/>
      <point x="515" y="1268"/>
      <point x="504" y="1305"/>
      <point x="478" y="1333"/>
      <point x="440" y="1349"/>
      <point x="417" y="1349" type="qcurve" name="av04"/>
      <point x="394" y="1349"/>
      <point x="350" y="1333"/>
      <point x="315" y="1305"/>
      <point x="291" y="1268"/>
      <point x="288" y="1247" type="qcurve"/>
      <point x="284" y="1226"/>
      <point x="295" y="1189"/>
      <point x="321" y="1161"/>
      <point x="359" y="1145"/>
    </contour>
  </outline>
</glyph>
<glyph name="Ohm" format="2">
  <advance width="1300"/>
  <unicode hex="2126"/>
  <outline>
    <contour>
      <point x="1" y="228" type="line" name="sv01"/>
      <point x="181" y="228" type="line"/>
      <point x="173" y="237" type="line"/>
      <point x="145" y="270"/>
      <point x="109" y="379"/>
      <point x="94" y="520"/>
      <point x="102" y="686"/>
      <point x="117" y="774" type="qcurve"/>
      <point x="146" y="939"/>
      <point x="242" y="1212"/>
      <point x="405" y="1409"/>
      <point x="648" y="1517"/>
      <point x="824" y="1517" type="qcurve" name="at01"/>
      <point x="996" y="1517"/>
      <point x="1200" y="1409"/>
      <point x="1295" y="1212"/>
      <point x="1297" y="939"/>
      <point x="1268" y="774" type="qcurve"/>
      <point x="1253" y="687"/>
      <point x="1201" y="523"/>
      <point x="1138" y="383"/>
      <point x="1066" y="273"/>
      <point x="1031" y="241" type="qcurve"/>
      <point x="1014" y="228" type="line"/>
      <point x="1192" y="228" type="line" name="sv03"/>
      <point x="1152" y="0" type="line" name="sv02"/>
      <point x="615" y="0" type="line"/>
      <point x="656" y="236" type="line" name="sv04"/>
      <point x="731" y="283"/>
      <point x="819" y="386"/>
      <point x="870" y="508"/>
      <point x="898" y="654"/>
      <point x="914" y="744" type="qcurve"/>
      <point x="933" y="850"/>
      <point x="947" y="1044"/>
      <point x="922" y="1191"/>
      <point x="847" y="1279"/>
      <point x="776" y="1279" type="qcurve"/>
      <point x="710" y="1279"/>
      <point x="612" y="1202"/>
      <point x="539" y="1072"/>
      <point x="489" y="901"/>
      <point x="473" y="807" type="qcurve"/>
      <point x="455" y="703"/>
      <point x="426" y="536"/>
      <point x="431" y="398"/>
      <point x="480" y="285"/>
      <point x="539" y="235" type="qcurve" name="av01"/>
      <point x="498" y="0" type="line"/>
      <point x="-39" y="0" type="line" name="ab01"/>
    </contour>
  </outline>
</glyph>
<glyph name="angstrom" format="2">
  <advance width="1300"/>
  <unicode hex="212B"/>
  <outline>
    <contour>
      <point x="35" y="0" type="line" name="ab01"/>
      <point x="616" y="1284" type="line"/>
      <point x="680" y="1500" type="line"/>
      <point x="1072" y="1520" type="line" name="at01"/>
      <point x="1234" y="0" type="line" name="sv01"/>
      <point x="900" y="0" type="line"/>
      <point x="872" y="427" type="line" name="sv02"/>
      <point x="530" y="427" type="line" name="av01"/>
      <point x="353" y="0" type="line"/>
    </contour>
    <contour>
      <point x="862" y="1331" type="line" name="mv01"/>
      <point x="763" y="990" type="line" name="mh01"/>
      <point x="627" y="646" type="line"/>
      <point x="851" y="646" type="line"/>
      <point x="840" y="990" type="line" name="mh02"/>
    </contour>
    <contour>
      <point x="970" y="1926" type="qcurve" name="av02"/>
      <point x="1029" y="1926"/>
      <point x="1125" y="1881"/>
      <point x="1188" y="1804"/>
      <point x="1214" y="1700"/>
      <point x="1204" y="1641" type="qcurve" name="sv03"/>
      <point x="1193" y="1582"/>
      <point x="1131" y="1477"/>
      <point x="1041" y="1398"/>
      <point x="930" y="1352"/>
      <point x="871" y="1352" type="qcurve" name="at02"/>
      <point x="812" y="1352"/>
      <point x="715" y="1398"/>
      <point x="651" y="1477"/>
      <point x="623" y="1582"/>
      <point x="634" y="1641" type="qcurve" name="av03"/>
      <point x="644" y="1700"/>
      <point x="708" y="1804"/>
      <point x="799" y="1881"/>
      <point x="911" y="1926"/>
    </contour>
    <contour>
      <point x="903" y="1541" type="qcurve"/>
      <point x="923" y="1541"/>
      <point x="961" y="1557"/>
      <point x="992" y="1584"/>
      <point x="1013" y="1620"/>
      <point x="1017" y="1640" type="qcurve" name="sv04"/>
      <point x="1020" y="1660"/>
      <point x="1011" y="1695"/>
      <point x="990" y="1722"/>
      <point x="957" y="1737"/>
      <point x="937" y="1737" type="qcurve"/>
      <point x="917" y="1737"/>
      <point x="879" y="1722"/>
      <point x="848" y="1695"/>
      <point x="826" y="1660"/>
      <point x="823" y="1640" type="qcurve" name="av04"/>
      <point x="819" y="1620"/>
      <point x="828" y="1584"/>
      <point x="850" y="1557"/>
      <point x="883" y="1541"/>
    </contour>
  </outline>
</glyph>
<glyph name="fractionnumeratorone" format="2">
  <advance width="1300"/>
  <unicode hex="215F"/>
  <outline>
    <contour>
      <point x="261" y="0" type="line" name="hr00"/>
      <point x="76" y="0" type="line"/>
      <point x="1116" y="1500" type="line"/>
      <point x="1292" y="1500" type="line"/>
    </contour>
    <contour>
      <point x="320" y="1160" type="line"/>
      <point x="389" y="1341" type="line"/>
      <point x="251" y="1206" type="line"/>
      <point x="203" y="1169" type="line"/>
      <point x="141" y="1261" type="line"/>
      <point x="420" y="1480" type="line"/>
      <point x="540" y="1470" type="line"/>
      <point x="425" y="820" type="line"/>
      <point x="547" y="820" type="line"/>
      <point x="529" y="720" type="line"/>
      <point x="120" y="720" type="line"/>
      <point x="138" y="820" type="line"/>
      <point x="260" y="820" type="line"/>
    </contour>
  </outline>
</glyph>
<glyph name="romannumeralone" format="2">
  <advance width="1300"/>
  <unicode hex="2160"/>
  <outline>
    <contour>
      <point x="353" y="1500" type="line" name="at01"/>
      <point x="1231" y="1500" type="line" name="sv01"/>
      <point x="1191" y="1272" type="line"/>
      <point x="918" y="1272" type="line"/>
      <point x="733" y="228" type="line"/>
      <point x="1034" y="228" type="line"/>
      <point x="959" y="0" type="line" name="sv02"/>
      <point x="81" y="0" type="line" name="ab01"/>
      <point x="121" y="228" type="line"/>
      <point x="399" y="228" type="line"/>
      <point x="584" y="1272" type="line"/>
      <point x="278" y="1272" type="line"/>
    </contour>
  </outline>
</glyph>
<glyph name="romannumeraltwo" format="2">
  <advance width="2600"/>
  <unicode hex="2161"/>
  <outline>
    <contour>
      <point x="1253" y="1500" type="line" name="at01"/>
      <point x="2131" y="1500" type="line" name="sv01"/>
      <point x="2091" y="1272" type="line"/>
      <point x="1818" y="1272" type="line"/>
      <point x="1633" y="228" type="line"/>
      <point x="1934" y="228" type="line"/>
      <point x="1859" y="0" type="line" name="sv02"/>
      <point x="981" y="0" type="line" name="ab01"/>
      <point x="1021" y="228" type="line"/>
      <point x="1299" y="228" type="line"/>
      <point x="1484" y="1272" type="line"/>
      <point x="1178" y="1272" type="line"/>
    </contour>
    <contour>
      <point x="653" y="1500" type="line" name="at02"/>
      <point x="1531" y="1500" type="line" name="sv03"/>
      <point x="1491" y="1272" type="line"/>
      <point x="1218" y="1272" type="line"/>
      <point x="1033" y="228" type="line"/>
      <point x="1334" y="228" type="line"/>
      <point x="1259" y="0" type="line" name="sv04"/>
      <point x="381" y="0" type="line" name="ab02"/>
      <point x="421" y="228" type="line"/>
      <point x="699" y="228" type="line"/>
      <point x="884" y="1272" type="line"/>
      <point x="578" y="1272" type="line"/>
    </contour>
  </outline>
</glyph>
<glyph name="romannumeralthree" format="2">
  <advance width="2600"/>
  <unicode hex="2162"/>
  <outline>
    <contour>
      <point x="1458" y="1500" type="line" name="at01"/>
      <point x="2336" y="1500" type="line" name="sv01"/>
      <point x="2296" y="1272" type="line"/>
      <point x="2023" y="1272" type="line"/>
      <point x="1838" y="228" type="line"/>
      <point x="2139" y="228" type="line"/>
      <point x="2064" y="0" type="line" name="sv02"/>
      <point x="1186" y="0" type="line" name="ab01"/>
      <point x="1226" y="228" type="line"/>
      <point x="1504" y="228" type="line"/>
      <point x="1689" y="1272" type="line"/>
      <point x="1383" y="1272" type="line"/>
    </contour>
    <contour>
      <point x="853" y="1500" type="line" name="at02"/>
      <point x="1731" y="1500" type="line" name="sv03"/>
      <point x="1691" y="1272" type="line"/>
      <point x="1418" y="1272" type="line"/>
      <point x="1233" y="228" type="line"/>
      <point x="1534" y="228" type="line"/>
      <point x="1459" y="0" type="line" name="sv04"/>
      <point x="581" y="0" type="line" name="ab02"/>
      <point x="621" y="228" type="line"/>
      <point x="899" y="228" type="line"/>
      <point x="1084" y="1272" type="line"/>
      <point x="778" y="1272" type="line"/>
    </contour>
    <contour>
      <point x="253" y="1500" type="line" name="at03"/>
      <point x="1131" y="1500" type="line" name="sv05"/>
      <point x="1091" y="1272" type="line"/>
      <point x="818" y="1272" type="line"/>
      <point x="633" y="228" type="line"/>
      <point x="934" y="228" type="line"/>
      <point x="859" y="0" type="line" name="sv06"/>
      <point x="-19" y="0" type="line" name="ab03"/>
      <point x="21" y="228" type="line"/>
      <point x="299" y="228" type="line"/>
      <point x="484" y="1272" type="line"/>
      <point x="178" y="1272" type="line"/>
    </contour>
  </outline>
</glyph>
<glyph name="romannumeralseven" format="2">
  <advance width="2600"/>
  <unicode hex="2166"/>
  <outline>
    <contour>
      <point x="1283" y="1500" type="line" name="sv01"/>
      <point x="641" y="200" type="line"/>
      <point x="575" y="-17" type="line" name="ab01"/>
      <point x="226" y="0" type="line"/>
      <point x="17" y="1500" type="line" name="at01"/>
      <point x="343" y="1520" type="line" name="at02"/>
      <point x="451" y="700" type="line" name="mh01"/>
      <point x="427" y="260" type="line" name="mv01"/>
      <point x="574" y="700" type="line"/>
      <point x="963" y="1500" type="line"/>
    </contour>
    <contour>
      <point x="1853" y="1500" type="line" name="at03"/>
      <point x="2731" y="1500" type="line" name="sv02"/>
      <point x="2691" y="1272" type="line"/>
      <point x="2418" y="1272" type="line"/>
      <point x="2233" y="228" type="line"/>
      <point x="2534" y="228" type="line"/>
      <point x="2459" y="0" type="line" name="sv03"/>
      <point x="1581" y="0" type="line" name="ab02"/>
      <point x="1621" y="228" type="line"/>
      <point x="1899" y="228" type="line"/>
      <point x="2084" y="1272" type="line"/>
      <point x="1778" y="1272" type="line"/>
    </contour>
    <contour>
      <point x="1203" y="1500" type="line" name="at04"/>
      <point x="2081" y="1500" type="line" name="sv04"/>
      <point x="2041" y="1272" type="line"/>
      <point x="1768" y="1272" type="line"/>
      <point x="1583" y="228" type="line"/>
      <point x="1884" y="228" type="line"/>
      <point x="1809" y="0" type="line" name="sv05"/>
      <point x="931" y="0" type="line" name="ab03"/>
      <point x="971" y="228" type="line"/>
      <point x="1249" y="228" type="line"/>
      <point x="1434" y="1272" type="line"/>
      <point x="1128" y="1272" type="line"/>
    </contour>
  </outline>
</glyph>
<glyph name="romannumeraleight" format="2">
  <advance width="2600"/>
  <unicode hex="2167"/>
  <outline>
    <contour>
      <point x="1083" y="1500" type="line" name="sv01"/>
      <point x="441" y="200" type="line"/>
      <point x="375" y="-17" type="line" name="ab01"/>
      <point x="26" y="0" type="line"/>
      <point x="-183" y="1500" type="line" name="at01"/>
      <point x="143" y="1520" type="line" name="at02"/>
      <point x="251" y="700" type="line" name="mh01"/>
      <point x="227" y="260" type="line" name="mv01"/>
      <point x="374" y="700" type="line"/>
      <point x="763" y="1500" type="line"/>
    </contour>
    <contour>
      <point x="1653" y="1500" type="line" name="at03"/>
      <point x="2531" y="1500" type="line" name="sv02"/>
      <point x="2491" y="1272" type="line"/>
      <point x="2218" y="1272" type="line"/>
      <point x="2033" y="228" type="line"/>
      <point x="2334" y="228" type="line"/>
      <point x="2259" y="0" type="line" name="sv03"/>
      <point x="1381" y="0" type="line" name="ab02"/>
      <point x="1421" y="228" type="line"/>
      <point x="1699" y="228" type="line"/>
      <point x="1884" y="1272" type="line"/>
      <point x="1578" y="1272" type="line"/>
    </contour>
    <contour>
      <point x="1003" y="1500" type="line" name="at04"/>
      <point x="1881" y="1500" type="line" name="sv04"/>
      <point x="1841" y="1272" type="line"/>
      <point x="1568" y="1272" type="line"/>
      <point x="1383" y="228" type="line"/>
      <point x="1684" y="228" type="line"/>
      <point x="1609" y="0" type="line" name="sv05"/>
      <point x="731" y="0" type="line" name="ab03"/>
      <point x="771" y="228" type="line"/>
      <point x="1049" y="228" type="line"/>
      <point x="1234" y="1272" type="line"/>
      <point x="928" y="1272" type="line"/>
    </contour>
  </outline>
</glyph>
<glyph name="romannumeraltwelve" format="2">
  <advance width="2600"/>
  <unicode hex="216B"/>
  <outline>
    <contour>
      <point x="825" y="0" type="line"/>
      <point x="611" y="613" type="line"/>
      <point x="571" y="427" type="line"/>
      <point x="321" y="0" type="line"/>
      <point x="-1" y="0" type="line" name="ab01"/>
      <point x="521" y="824" type="line"/>
      <point x="252" y="1500" type="line" name="at01"/>
      <point x="584" y="1520" type="line" name="at02"/>
      <point x="765" y="1050" type="line"/>
      <point x="817" y="1231" type="line"/>
      <point x="982" y="1500" type="line"/>
      <point x="1269" y="1500" type="line" name="sv01"/>
      <point x="848" y="855" type="line"/>
      <point x="1165" y="0" type="line" name="sv02"/>
    </contour>
    <contour>
      <point x="1153" y="1500" type="line" name="at03"/>
      <point x="2031" y="1500" type="line" name="sv03"/>
      <point x="1991" y="1272" type="line"/>
      <point x="1718" y="1272" type="line"/>
      <point x="1533" y="228" type="line"/>
      <point x="1834" y="228" type="line"/>
      <point x="1759" y="0" type="line" name="sv04"/>
      <point x="881" y="0" type="line" name="ab02"/>
      <point x="921" y="228" type="line"/>
      <point x="1199" y="228" type="line"/>
      <point x="1384" y="1272" type="line"/>
      <point x="1078" y="1272" type="line"/>
    </contour>
    <contour>
      <point x="1753" y="1500" type="line" name="at04"/>
      <point x="2631" y="1500" type="line" name="sv05"/>
      <point x="2591" y="1272" type="line"/>
      <point x="2318" y="1272" type="line"/>
      <point x="2133" y="228" type="line"/>
      <point x="2434" y="228" type="line"/>
      <point x="2359" y="0" type="line" name="sv06"/>
      <point x="1481" y="0" type="line" name="ab03"/>
      <point x="1521" y="228" type="line"/>
      <point x="1799" y="228" type="line"/>
      <point x="1984" y="1272" type="line"/>
      <point x="1678" y="1272" type="line"/>
    </contour>
  </outline>
</glyph>
<glyph name="smallromannumeralone" format="2">
  <advance width="1300"/>
  <unicode hex="2170"/>
  <outline>
    <contour>
      <point x="651" y="0" type="line" name="hr00"/>
      <point x="351" y="0" type="line"/>
      <point x="545" y="1100" type="line"/>
      <point x="848" y="1120" type="line"/>
    </contour>
  </outline>
</glyph>
<glyph name="smallromannumeraltwo" format="2">
  <advance width="1300"/>
  <unicode hex="2171"/>
  <outline>
    <contour>
      <point x="451" y="0" type="line"/>
      <point x="151" y="0" type="line"/>
      <point x="345" y="1100" type="line"/>
      <point x="648" y="1120" type="line"/>
    </contour>
    <contour>
      <point x="951" y="0" type="line" name="hr01"/>
      <point x="651" y="0" type="line"/>
      <point x="845" y="1100" type="line"/>
      <point x="1148" y="1120" type="line"/>
    </contour>
  </outline>
</glyph>
<glyph name="smallromannumeralfour" format="2">
  <advance width="1300"/>
  <unicode hex="2173"/>
  <outline>
    <contour>
      <point x="728" y="700" type="line"/>
      <point x="731" y="300" type="line"/>
      <point x="874" y="700" type="line"/>
      <point x="1075" y="1100" type="line" name="sv01"/>
      <point x="1392" y="1120" type="line" name="at02"/>
      <point x="818" y="-17" type="line" name="ab01"/>
      <point x="505" y="0" type="line"/>
      <point x="348" y="1100" type="line" name="at03"/>
      <point x="666" y="1120" type="line" name="at01"/>
    </contour>
    <contour>
      <point x="191" y="0" type="line" name="hr01"/>
      <point x="-109" y="0" type="line"/>
      <point x="85" y="1100" type="line"/>
      <point x="388" y="1120" type="line"/>
    </contour>
  </outline>
</glyph>
<glyph name="smallromannumeralfive" format="2">
  <advance width="1300"/>
  <unicode hex="2174"/>
  <outline>
    <contour>
      <point x="508" y="700" type="line" name="hr00"/>
      <point x="511" y="300" type="line"/>
      <point x="654" y="700" type="line"/>
      <point x="855" y="1100" type="line" name="sv01"/>
      <point x="1172" y="1120" type="line" name="at02"/>
      <point x="598" y="-17" type="line" name="ab01"/>
      <point x="285" y="0" type="line"/>
      <point x="128" y="1100" type="line" name="at03"/>
      <point x="446" y="1120" type="line" name="at01"/>
    </contour>
  </outline>
</glyph>
<glyph name="smallromannumeralsix" format="2">
  <advance width="1300"/>
  <unicode hex="2175"/>
  <outline>
    <contour>
      <point x="378" y="700" type="line"/>
      <point x="381" y="300" type="line"/>
      <point x="524" y="700" type="line"/>
      <point x="725" y="1100" type="line" name="sv01"/>
      <point x="1042" y="1120" type="line" name="at02"/>
      <point x="468" y="-17" type="line" name="ab01"/>
      <point x="155" y="0" type="line"/>
      <point x="-2" y="1100" type="line" name="at03"/>
      <point x="316" y="1120" type="line" name="at01"/>
    </contour>
    <contour>
      <point x="1101" y="0" type="line" name="hr01"/>
      <point x="801" y="0" type="line"/>
      <point x="995" y="1100" type="line"/>
      <point x="1298" y="1120" type="line"/>
    </contour>
  </outline>
</glyph>
<glyph name="smallromannumeralseven" format="2">
  <advance width="2600"/>
  <unicode hex="2176"/>
  <outline>
    <contour>
      <point x="508" y="700" type="line"/>
      <point x="511" y="300" type="line"/>
      <point x="654" y="700" type="line"/>
      <point x="855" y="1100" type="line" name="sv01"/>
      <point x="1172" y="1120" type="line" name="at02"/>
      <point x="598" y="-17" type="line" name="ab01"/>
      <point x="285" y="0" type="line"/>
      <point x="128" y="1100" type="line" name="at03"/>
      <point x="446" y="1120" type="line" name="at01"/>
    </contour>
    <contour>
      <point x="1351" y="0" type="line" name="hr01"/>
      <point x="1051" y="0" type="line"/>
      <point x="1245" y="1100" type="line"/>
      <point x="1548" y="1120" type="line"/>
    </contour>
    <contour>
      <point x="1851" y="0" type="line" name="hr02"/>
      <point x="1551" y="0" type="line"/>
      <point x="1745" y="1100" type="line"/>
      <point x="2048" y="1120" type="line"/>
    </contour>
  </outline>
</glyph>
<glyph name="smallromannumeraleight" format="2">
  <advance width="2600"/>
  <unicode hex="2177"/>
  <outline>
    <contour>
      <point x="508" y="700" type="line"/>
      <point x="511" y="300" type="line"/>
      <point x="654" y="700" type="line"/>
      <point x="855" y="1100" type="line" name="sv01"/>
      <point x="1172" y="1120" type="line" name="at02"/>
      <point x="598" y="-17" type="line" name="ab01"/>
      <point x="285" y="0" type="line"/>
      <point x="128" y="1100" type="line" name="at03"/>
      <point x="446" y="1120" type="line" name="at01"/>
    </contour>
    <contour>
      <point x="1351" y="0" type="line" name="hr01"/>
      <point x="1051" y="0" type="line"/>
      <point x="1245" y="1100" type="line"/>
      <point x="1548" y="1120" type="line"/>
    </contour>
    <contour>
      <point x="1851" y="0" type="line" name="hr02"/>
      <point x="1551" y="0" type="line"/>
      <point x="1745" y="1100" type="line"/>
      <point x="2048" y="1120" type="line"/>
    </contour>
    <contour>
      <point x="2351" y="0" type="line" name="hr03"/>
      <point x="2051" y="0" type="line"/>
      <point x="2245" y="1100" type="line"/>
      <point x="2548" y="1120" type="line"/>
    </contour>
  </outline>
</glyph>
<glyph name="smallromannumeralnine" format="2">
  <advance width="1300"/>
  <unicode hex="2178"/>
  <outline>
    <contour>
      <point x="777" y="272" type="line"/>
      <point x="746" y="474" type="line"/>
      <point x="653" y="272" type="line"/>
      <point x="437" y="0" type="line"/>
      <point x="99" y="0" type="line" name="ab01"/>
      <point x="602" y="585" type="line"/>
      <point x="337" y="1100" type="line" name="at02"/>
      <point x="682" y="1120" type="line" name="at01"/>
      <point x="784" y="900" type="line"/>
      <point x="811" y="700" type="line"/>
      <point x="906" y="900" type="line"/>
      <point x="1071" y="1100" type="line" name="sv01"/>
      <point x="1429" y="1120" type="line" name="at03"/>
      <point x="965" y="581" type="line"/>
      <point x="1271" y="0" type="line" name="sv02"/>
      <point x="910" y="0" type="line"/>
    </contour>
    <contour>
      <point x="171" y="0" type="line" name="hr01"/>
      <point x="-129" y="0" type="line"/>
      <point x="65" y="1100" type="line"/>
      <point x="368" y="1120" type="line"/>
    </contour>
  </outline>
</glyph>
<glyph name="smallromannumeraleleven" format="2">
  <advance width="1300"/>
  <unicode hex="217A"/>
  <outline>
    <contour>
      <point x="577" y="272" type="line"/>
      <point x="546" y="474" type="line"/>
      <point x="453" y="272" type="line"/>
      <point x="237" y="0" type="line"/>
      <point x="-101" y="0" type="line" name="ab01"/>
      <point x="402" y="585" type="line"/>
      <point x="137" y="1100" type="line" name="at02"/>
      <point x="482" y="1120" type="line" name="at01"/>
      <point x="584" y="900" type="line"/>
      <point x="611" y="700" type="line"/>
      <point x="706" y="900" type="line"/>
      <point x="871" y="1100" type="line" name="sv01"/>
      <point x="1229" y="1120" type="line" name="at03"/>
      <point x="765" y="581" type="line"/>
      <point x="1071" y="0" type="line" name="sv02"/>
      <point x="710" y="0" type="line"/>
    </contour>
    <contour>
      <point x="1291" y="0" type="line" name="hr01"/>
      <point x="991" y="0" type="line"/>
      <point x="1185" y="1100" type="line"/>
      <point x="1488" y="1120" type="line"/>
    </contour>
  </outline>
</glyph>
<glyph name="smallromannumeraltwelve" format="2">
  <advance width="2600"/>
  <unicode hex="217B"/>
  <outline>
    <contour>
      <point x="877" y="272" type="line"/>
      <point x="846" y="474" type="line"/>
      <point x="753" y="272" type="line"/>
      <point x="537" y="0" type="line"/>
      <point x="199" y="0" type="line" name="ab01"/>
      <point x="702" y="585" type="line"/>
      <point x="437" y="1100" type="line" name="at02"/>
      <point x="782" y="1120" type="line" name="at01"/>
      <point x="884" y="900" type="line"/>
      <point x="911" y="700" type="line"/>
      <point x="1006" y="900" type="line"/>
      <point x="1171" y="1100" type="line" name="sv01"/>
      <point x="1529" y="1120" type="line" name="at03"/>
      <point x="1065" y="581" type="line"/>
      <point x="1371" y="0" type="line" name="sv02"/>
      <point x="1010" y="0" type="line"/>
    </contour>
    <contour>
      <point x="1581" y="0" type="line" name="hr01"/>
      <point x="1281" y="0" type="line"/>
      <point x="1475" y="1100" type="line"/>
      <point x="1778" y="1120" type="line"/>
    </contour>
    <contour>
      <point x="1981" y="0" type="line" name="hr02"/>
      <point x="1681" y="0" type="line"/>
      <point x="1875" y="1100" type="line"/>
      <point x="2178" y="1120" type="line"/>
    </contour>
  </outline>
</glyph>
<glyph name="minus" format="2">
  <advance width="1300"/>
  <unicode hex="2212"/>
  <outline>
    <contour>
      <point x="219" y="700" type="line" name="av01"/>
      <point x="1119" y="700" type="line" name="sv01"/>
      <point x="1080" y="476" type="line"/>
      <point x="180" y="476" type="line"/>
    </contour>
  </outline>
</glyph>
<glyph name="minusplus" format="2">
  <advance width="1300"/>
  <unicode hex="2213"/>
  <outline>
    <contour>
      <point x="145" y="612" type="line" name="av02"/>
      <point x="505" y="612" type="line"/>
      <point x="578" y="946" type="line" name="av03"/>
      <point x="798" y="946" type="line" name="sv01"/>
      <point x="725" y="612" type="line"/>
      <point x="1085" y="612" type="line" name="sv02"/>
      <point x="1049" y="452" type="line"/>
      <point x="689" y="452" type="line"/>
      <point x="619" y="132" type="line" name="sv03"/>
      <point x="399" y="132" type="line" name="av04"/>
      <point x="469" y="452" type="line"/>
      <point x="109" y="452" type="line"/>
    </contour>
    <contour>
      <point x="279" y="1200" type="line" name="av01"/>
      <point x="1179" y="1200" type="line" name="sv04"/>
      <point x="1140" y="998" type="line"/>
      <point x="240" y="998" type="line"/>
    </contour>
  </outline>
</glyph>
<glyph name="notequal" format="2">
  <advance width="1300"/>
  <unicode hex="2260"/>
  <outline>
    <contour>
      <point x="512" y="0" type="line" name="mh01"/>
      <point x="297" y="0" type="line" name="mh02"/>
      <point x="835" y="1000" type="line" name="mh03"/>
      <point x="1041" y="1000" type="line" name="mh04"/>
    </contour>
    <contour>
      <point x="304" y="800" type="line"/>
      <point x="1104" y="800" type="line" name="mh05"/>
      <point x="1065" y="581" type="line"/>
      <point x="265" y="581" type="line" name="mv01"/>
    </contour>
    <contour>
      <point x="234" y="400" type="line" name="mv02"/>
      <point x="1034" y="400" type="line"/>
      <point x="995" y="181" type="line"/>
      <point x="195" y="181" type="line" name="mh06"/>
    </contour>
  </outline>
</glyph>
<glyph name="equivalence" format="2">
  <advance width="1300"/>
  <unicode hex="2261"/>
  <outline>
    <contour>
      <point x="213" y="300" type="line" name="av03"/>
      <point x="1013" y="300" type="line" name="sv01"/>
      <point x="980" y="116" type="line"/>
      <point x="180" y="116" type="line"/>
    </contour>
    <contour>
      <point x="266" y="600" type="line" name="av02"/>
      <point x="1066" y="600" type="line" name="sv02"/>
      <point x="1033" y="416" type="line"/>
      <point x="233" y="416" type="line"/>
    </contour>
    <contour>
      <point x="319" y="900" type="line" name="av01"/>
      <point x="1119" y="900" type="line" name="sv03"/>
      <point x="1086" y="716" type="line"/>
      <point x="286" y="716" type="line"/>
    </contour>
  </outline>
</glyph>
<glyph name="lessequal" format="2">
  <advance width="1300"/>
  <unicode hex="2264"/>
  <outline>
    <contour>
      <point x="97" y="200" type="line" name="hr00"/>
      <point x="1104" y="200" type="line"/>
      <point x="1044" y="0" type="line"/>
      <point x="62" y="0" type="line"/>
    </contour>
    <contour>
      <point x="1236" y="1296" type="line"/>
      <point x="1189" y="1081" type="line"/>
      <point x="459" y="797" type="line"/>
      <point x="1064" y="516" type="line"/>
      <point x="1017" y="301" type="line"/>
      <point x="100" y="710" type="line"/>
      <point x="140" y="890" type="line"/>
    </contour>
  </outline>
</glyph>
<glyph name="greaterequal" format="2">
  <advance width="1300"/>
  <unicode hex="2265"/>
  <outline>
    <contour>
      <point x="135" y="200" type="line" name="hr00"/>
      <point x="1142" y="200" type="line"/>
      <point x="1082" y="0" type="line"/>
      <point x="100" y="0" type="line"/>
    </contour>
    <contour>
      <point x="1237" y="888" type="line"/>
      <point x="1197" y="708" type="line"/>
      <point x="100" y="299" type="line"/>
      <point x="147" y="514" type="line"/>
      <point x="876" y="795" type="line"/>
      <point x="272" y="1079" type="line"/>
      <point x="319" y="1294" type="line"/>
    </contour>
  </outline>
</glyph>
<glyph name="zero.1" format="2">
  <advance width="1300"/>
  <unicode hex="E070"/>
  <outline>
    <contour>
      <point x="512" y="-16" type="curve" smooth="yes"/>
      <point x="918" y="-16"/>
      <point x="1144" y="390"/>
      <point x="1208" y="750" type="curve"/>
      <point x="1268" y="1100"/>
      <point x="1157" y="1516"/>
      <point x="783" y="1516" type="curve" smooth="yes"/>
      <point x="375" y="1516"/>
      <point x="152" y="1110"/>
      <point x="88" y="750" type="curve"/>
      <point x="24" y="401"/>
      <point x="141" y="-16"/>
    </contour>
    <contour>
      <point x="423" y="791" type="curve" smooth="yes"/>
      <point x="463" y="1008"/>
      <point x="561" y="1273"/>
      <point x="732" y="1273" type="curve" smooth="yes"/>
      <point x="784" y="1273"/>
      <point x="820" y="1246"/>
      <point x="845" y="1203" type="curve"/>
      <point x="360" y="384" type="line"/>
      <point x="400" y="549" type="line"/>
      <point x="400" y="634"/>
      <point x="411" y="722"/>
    </contour>
    <contour>
      <point x="872" y="709" type="curve" smooth="yes"/>
      <point x="832" y="491"/>
      <point x="732" y="226"/>
      <point x="562" y="226" type="curve" smooth="yes"/>
      <point x="523" y="226"/>
      <point x="493" y="241"/>
      <point x="470" y="266" type="curve"/>
      <point x="940" y="1071" type="line"/>
      <point x="892" y="889" type="line"/>
      <point x="889" y="824"/>
      <point x="882" y="764"/>
    </contour>
  </outline>
</glyph>
<glyph name="filigature" format="2">
  <advance width="1300"/>
  <unicode hex="FB01"/>
  <outline>
    <contour>
      <point x="155" y="1100" type="line" name="sv01"/>
      <point x="295" y="1100" type="line"/>
      <point x="320" y="1242" type="line"/>
      <point x="335" y="1330"/>
      <point x="409" y="1469"/>
      <point x="526" y="1566"/>
      <point x="686" y="1617"/>
      <point x="788" y="1617" type="qcurve" name="av02"/>
      <point x="858" y="1617"/>
      <point x="988" y="1598"/>
      <point x="1096" y="1565"/>
      <point x="1179" y="1523"/>
      <point x="1203" y="1500" type="qcurve"/>
      <point x="1163" y="1269" type="line" name="sv02"/>
      <point x="855" y="1269" type="line" name="av01"/>
      <point x="879" y="1407" type="line"/>
      <point x="868" y="1409"/>
      <point x="819" y="1413"/>
      <point x="784" y="1413" type="qcurve"/>
      <point x="724" y="1413"/>
      <point x="646" y="1320"/>
      <point x="630" y="1233" type="qcurve"/>
      <point x="607" y="1100" type="line" name="at01"/>
      <point x="1127" y="1100" type="line" name="sv03"/>
      <point x="933" y="0" type="line" name="sv05"/>
      <point x="617" y="0" type="line"/>
      <point x="771" y="876" type="line"/>
      <point x="581" y="876" type="line"/>
      <point x="427" y="0" type="line" name="sv04"/>
      <point x="101" y="0" type="line" name="ab01"/>
      <point x="255" y="876" type="line"/>
      <point x="115" y="876" type="line"/>
    </contour>
  </outline>
</glyph>
<glyph name="flligature" format="2">
  <advance width="1300"/>
  <unicode hex="FB02"/>
  <outline>
    <contour>
      <point x="152" y="1100" type="line" name="at01"/>
      <point x="292" y="1100" type="line" name="sv01"/>
      <point x="317" y="1242" type="line"/>
      <point x="333" y="1330"/>
      <point x="407" y="1469"/>
      <point x="524" y="1566"/>
      <point x="684" y="1617"/>
      <point x="786" y="1617" type="qcurve" name="av01"/>
      <point x="875" y="1617"/>
      <point x="1023" y="1572"/>
      <point x="1126" y="1483"/>
      <point x="1177" y="1352"/>
      <point x="1169" y="1266" type="qcurve"/>
      <point x="1016" y="403" type="line" name="sv02"/>
      <point x="1008" y="360"/>
      <point x="1002" y="288"/>
      <point x="1012" y="237"/>
      <point x="1043" y="209"/>
      <point x="1073" y="209" type="qcurve"/>
      <point x="1087" y="209"/>
      <point x="1124" y="220"/>
      <point x="1161" y="235"/>
      <point x="1192" y="249"/>
      <point x="1200" y="252" type="qcurve"/>
      <point x="1182" y="27" type="line"/>
      <point x="1170" y="21"/>
      <point x="1131" y="6"/>
      <point x="1080" y="-7"/>
      <point x="1016" y="-17"/>
      <point x="979" y="-17" type="qcurve" name="ab01"/>
      <point x="868" y="-17"/>
      <point x="738" y="48"/>
      <point x="678" y="163"/>
      <point x="675" y="320"/>
      <point x="691" y="411" type="qcurve" name="av02"/>
      <point x="862" y="1379" type="line"/>
      <point x="851" y="1387"/>
      <point x="811" y="1403"/>
      <point x="780" y="1403" type="qcurve"/>
      <point x="758" y="1403"/>
      <point x="710" y="1382"/>
      <point x="668" y="1340"/>
      <point x="635" y="1276"/>
      <point x="628" y="1233" type="qcurve"/>
      <point x="604" y="1100" type="line"/>
      <point x="692" y="1100" type="line" name="sv03"/>
      <point x="653" y="876" type="line" name="sv04"/>
      <point x="579" y="876" type="line"/>
      <point x="424" y="0" type="line" name="sv05"/>
      <point x="98" y="0" type="line" name="ab02"/>
      <point x="253" y="876" type="line"/>
      <point x="113" y="876" type="line" name="sv06"/>
    </contour>
  </outline>
</glyph>
